<svg width="102" height="102" viewBox="0 0 102 102" fill="none" xmlns="http://www.w3.org/2000/svg">
<g clip-path="url(#clip0)">
<path d="M41.73 24.9992H30.1793C27.7786 24.9992 25.8253 26.9524 25.8253 29.3533V45.3829H25.3238C22.9231 45.3829 20.9698 47.336 20.9698 49.737C20.9698 52.1377 22.9229 54.091 25.3238 54.091H25.8253V56.8012H25.3238C22.9231 56.8012 20.9698 58.7545 20.9698 61.1552C20.9698 63.5559 22.9229 65.5092 25.3238 65.5092H25.8253V69.536C25.8253 71.9368 27.7784 73.8901 30.1793 73.8901C32.5801 73.8901 34.5334 71.937 34.5334 69.536V65.5092H41.0505C43.4512 65.5092 45.4045 63.5561 45.4045 61.1552C45.4045 58.7545 43.4514 56.8012 41.0505 56.8012H34.5334V54.091H41.73C49.7507 54.091 56.2757 47.5658 56.2757 39.5453C56.2757 31.5243 49.7507 24.9992 41.73 24.9992ZM41.73 51.1301H33.0531C32.2357 51.1301 31.5729 51.7929 31.5729 52.6104V58.281C31.5729 59.0985 32.2357 59.7612 33.0531 59.7612H41.0505C41.8188 59.7612 42.4441 60.3865 42.4441 61.1548C42.4441 61.9232 41.819 62.5484 41.0505 62.5484H33.0531C32.2357 62.5484 31.5729 63.2112 31.5729 64.0286V69.5357C31.5729 70.304 30.9479 70.9292 30.1793 70.9292C29.411 70.9292 28.7858 70.3042 28.7858 69.5357V64.0286C28.7858 63.2112 28.123 62.5484 27.3055 62.5484H25.3238C24.5555 62.5484 23.9302 61.9234 23.9302 61.1548C23.9302 60.3865 24.5553 59.7612 25.3238 59.7612H27.3055C28.123 59.7612 28.7858 59.0985 28.7858 58.281V52.6104C28.7858 51.7929 28.123 51.1301 27.3055 51.1301H25.3238C24.5555 51.1301 23.9302 50.5051 23.9302 49.7366C23.9302 48.968 24.5553 48.343 25.3238 48.343H27.3055C28.123 48.343 28.7858 47.6802 28.7858 46.8628V29.3529C28.7858 28.5845 29.4108 27.9593 30.1793 27.9593H41.73C48.1181 27.9593 53.3152 33.1565 53.3152 39.5445C53.3152 45.9326 48.1181 51.1301 41.73 51.1301ZM21.8926 88.6698C16.2749 84.317 11.6272 78.6682 8.4522 72.3345C5.12328 65.6938 3.43542 58.5321 3.43542 51.0484C3.43542 38.3434 8.38293 26.3989 17.3667 17.4152C26.3505 8.43139 38.2949 3.48389 51 3.48389C57.612 3.48389 64.011 4.81431 70.0189 7.43826C75.8231 9.97319 80.9951 13.5909 85.3909 18.1904C85.9558 18.7813 86.8927 18.8026 87.4836 18.2378C88.0747 17.6729 88.0958 16.736 87.5309 16.1449C82.8627 11.2602 77.3693 7.41813 71.2035 4.7253C64.8197 1.93715 58.0224 0.523438 51 0.523438C37.5043 0.523438 24.8162 5.77883 15.2733 15.3219C5.73056 24.8646 0.474976 37.5527 0.474976 51.0484C0.474976 58.9968 2.26842 66.6048 5.80556 73.6609C9.17771 80.3883 14.1136 86.3873 20.0793 91.01C20.3491 91.219 20.6682 91.3202 20.9848 91.3202C21.4269 91.3202 21.8642 91.1231 22.1559 90.7465C22.6566 90.1003 22.5388 89.1705 21.8926 88.6698ZM92.1398 21.711C91.6645 21.0459 90.7401 20.8917 90.0749 21.367C89.4096 21.8422 89.2557 22.7667 89.7307 23.4318C95.5097 31.5217 98.5645 41.0713 98.5645 51.0484C98.5645 63.7535 93.617 75.6979 84.6332 84.6817C75.6495 93.6655 63.705 98.613 51 98.613C42.8649 98.613 34.8373 96.5245 27.7851 92.5731C27.072 92.1734 26.1699 92.4276 25.7702 93.1409C25.3708 93.8542 25.6248 94.7561 26.3381 95.1558C33.8313 99.3543 42.3592 101.573 51 101.573C64.4957 101.573 77.1838 96.3178 86.7267 86.7751C96.2696 77.2322 101.525 64.5441 101.525 51.0484C101.525 40.4506 98.2795 30.306 92.1398 21.711ZM51 9.5009C28.0906 9.5009 9.45244 28.1391 9.45244 51.0484C9.45244 73.9578 28.0906 92.596 51 92.596C57.1338 92.596 62.9608 91.2586 68.2065 88.8621C68.3178 88.8257 68.4254 88.7756 68.527 88.7123C73.1445 86.5549 77.3022 83.5735 80.8099 79.9572C80.9372 79.8627 81.0497 79.7468 81.1425 79.6128C88.2071 72.1616 92.5473 62.1028 92.5473 51.0486C92.5475 28.1391 73.9093 9.5009 51 9.5009ZM78.0974 50.947C77.9063 54.147 78.6561 57.4063 79.1201 59.0642C79.1363 59.1218 79.1558 59.1782 79.1787 59.2335C79.5044 60.0168 79.7807 60.8406 80.0001 61.6822C80.0027 61.692 80.0055 61.7021 80.0082 61.712L80.0055 61.7023L80.0219 61.7696C81.2483 66.5636 80.7614 72.2877 78.6602 77.9234C77.0557 79.5743 75.3061 81.0836 73.4303 82.428C74.0096 81.4511 74.5446 80.4398 75.0272 79.4022C77.709 73.6365 78.5552 67.5072 77.3486 62.5861C77.3336 62.5247 77.3146 62.4641 77.2917 62.4051C77.0434 61.7627 76.7938 61.0169 76.5694 60.2481C76.552 60.1887 76.5311 60.1305 76.5064 60.0739C76.2913 59.5781 76.0574 59.1099 75.8115 58.6826C73.3845 54.4636 69.9287 54.1275 68.0847 54.302C64.831 54.6099 61.6836 56.845 60.7639 59.5015C60.6422 59.853 60.3907 60.1362 60.056 60.2989C59.7211 60.4615 59.3429 60.4838 58.9912 60.3622C58.6395 60.2404 58.3563 59.989 58.1935 59.6541C58.0308 59.3193 58.0084 58.9412 58.1301 58.5895C59.236 55.3956 62.5319 52.6562 66.3321 51.7728C66.7701 51.6709 67.138 51.3757 67.332 50.9701C67.5262 50.5645 67.5254 50.0928 67.3302 49.6878C66.4464 47.8555 65.8152 45.7763 65.4543 43.5078C64.6899 38.7044 65.5115 34.6387 67.7682 32.0599C68.274 31.4818 69.1562 31.4228 69.7345 31.9289C70.0145 32.174 70.1825 32.5135 70.2074 32.8849C70.232 33.2563 70.1109 33.6151 69.8657 33.8952C68.1885 35.8118 67.584 39.1559 68.2069 43.0694C68.4704 44.7251 69.0226 46.5829 69.7221 48.1663C70.5674 50.0802 71.5212 51.4122 72.5568 52.1256C72.6387 52.1821 72.7259 52.2299 72.8173 52.2689C72.946 52.3236 73.0733 52.3812 73.1998 52.4414C73.6496 52.6558 74.1767 52.6295 74.6027 52.3716C75.0288 52.1138 75.2968 51.6591 75.3157 51.1615C75.4953 46.4493 77.2303 43.3053 80.4724 41.817C80.8107 41.6618 81.1893 41.6476 81.5382 41.7769C81.8871 41.9064 82.1648 42.1639 82.3201 42.5022C82.4755 42.8405 82.4897 43.2188 82.3602 43.568C82.2309 43.9169 81.9732 44.1946 81.6349 44.3499C80.1604 45.0271 78.3498 46.7211 78.0974 50.947ZM83.2347 72.2332C83.874 68.2982 83.7676 64.4666 82.889 61.0319C82.8805 60.9948 82.8714 60.9579 82.8611 60.9211C82.6158 59.9829 82.3087 59.0622 81.9477 58.1827C80.637 53.4421 80.533 48.1136 82.8698 47.0408C83.9269 46.5557 84.7315 45.6881 85.1359 44.5976C85.5403 43.5072 85.4957 42.3246 85.0106 41.2677C84.5255 40.2108 83.6577 39.406 82.5675 39.0018C81.4768 38.5974 80.2942 38.6418 79.2373 39.1271C75.8344 40.6892 73.633 43.6167 72.7626 47.6856C72.0458 46.2732 71.4125 44.376 71.1306 42.605C70.6607 39.6517 71.0296 37.0617 72.0938 35.8455C72.8597 34.9702 73.2389 33.8492 73.1615 32.6887C73.0841 31.5282 72.5595 30.4674 71.6842 29.7016C69.8774 28.1207 67.1212 28.3045 65.5407 30.1112C62.6949 33.3635 61.6262 38.2865 62.5311 43.9738C62.8378 45.9016 63.3222 47.7164 63.9752 49.3904C59.9496 50.8487 56.5869 53.9996 55.3329 57.6216C54.9524 58.7205 55.0226 59.902 55.5308 60.948C56.0389 61.9942 56.924 62.7799 58.0231 63.1604C59.1219 63.5407 60.3033 63.4705 61.3495 62.9625C62.3957 62.4543 63.1814 61.5693 63.5618 60.4704C64.0984 58.9201 66.2976 57.4452 68.3642 57.2498C70.3818 57.0587 72.0249 58.0373 73.2456 60.1595C73.423 60.468 73.5941 60.8079 73.7548 61.171C73.9875 61.9599 74.236 62.7021 74.4949 63.3803C75.5119 67.6455 74.7296 73.0237 72.343 78.1543C70.936 81.1793 69.0538 83.9574 66.8911 86.2099C62.0425 88.4099 56.6619 89.6359 51 89.6359C29.723 89.6359 12.4129 72.326 12.4129 51.0488C12.4129 29.7717 29.723 12.4614 51 12.4614C72.2769 12.4614 89.5871 29.7715 89.5871 51.0484C89.5871 58.867 87.2473 66.1481 83.2347 72.2332ZM41.73 30.7467H33.0531C32.2357 30.7467 31.5729 31.4094 31.5729 32.2269V46.863C31.5729 47.6804 32.2357 48.3432 33.0531 48.3432H41.73C46.5814 48.3432 50.5283 44.3963 50.5283 39.5449C50.5283 34.6935 46.5814 30.7467 41.73 30.7467ZM41.73 45.3827H34.5334V33.7071H41.73C44.949 33.7071 47.5678 36.3259 47.5678 39.5449C47.5678 42.7639 44.949 45.3827 41.73 45.3827Z" fill="#2980B9"/>
</g>
<defs>
<clipPath id="clip0">
<rect width="101.05" height="101.05" fill="white" transform="translate(0.474976 0.523438)"/>
</clipPath>
</defs>
</svg>
