<svg width="106" height="105" viewBox="0 0 106 105" fill="none" xmlns="http://www.w3.org/2000/svg">
<path d="M73.7829 46.2029L54.0941 65.8917H46.3813V62.5281H46.3376C49.5801 60.1013 51.9313 56.546 52.7688 52.4373H53.1085C56.8186 52.4373 59.8357 49.4202 59.8357 45.7101C59.8357 44.0182 59.1883 42.4895 58.1539 41.3071V35.6193C58.1539 23.5641 48.3457 13.7559 36.2905 13.7559C24.2353 13.7559 14.4271 23.5641 14.4271 35.6193V41.3071C13.3928 42.4895 12.7453 44.0182 12.7453 45.7101C12.7453 49.4202 15.7624 52.4373 19.4725 52.4373H19.8122C20.6497 56.546 23.0009 60.1013 26.2434 62.5281H26.1997V65.8917H17.7907C8.51722 65.8917 0.972656 73.4363 0.972656 82.7098V102.891C0.972656 103.821 1.72442 104.573 2.65446 104.573H69.9266C70.8566 104.573 71.6084 103.821 71.6084 102.891V82.7098C71.6084 74.6909 65.9626 67.9755 58.4398 66.3021L75.6682 49.0737H105.244V45.7101H74.972C74.5246 45.7101 74.0974 45.8867 73.7829 46.2029ZM27.0927 69.2553L33.6383 77.1094L27.1819 80.3367L23.4869 69.2553H27.0927ZM35.9878 87.7552H36.5949L39.2858 101.21H33.2969L35.9878 87.7552ZM36.933 84.3916H35.6481L33.8384 80.7707L36.2905 79.5446L38.7426 80.7707L36.933 84.3916ZM38.9427 77.1094L45.4883 69.2553H49.0941L45.3992 80.3384L38.9427 77.1094ZM53.1085 49.0737V42.3465C54.9636 42.3465 56.4721 43.8551 56.4721 45.7101C56.4721 47.5651 54.9636 49.0737 53.1085 49.0737ZM16.1089 45.7101C16.1089 43.8551 17.6175 42.3465 19.4725 42.3465V49.0737C17.6175 49.0737 16.1089 47.5651 16.1089 45.7101ZM19.4725 38.9829C18.8889 38.9829 18.3322 39.0804 17.7907 39.2217V35.6193C17.7907 25.4192 26.0904 17.1195 36.2905 17.1195C46.4906 17.1195 54.7903 25.4192 54.7903 35.6193V39.2217C54.2488 39.0804 53.6921 38.9829 53.1085 38.9829C53.1085 38.0529 52.3568 37.3011 51.4267 37.3011C48.7947 37.3011 46.2787 36.0431 44.6995 33.9358L42.6814 31.2449C42.0473 30.4007 40.6245 30.4007 39.9905 31.2449L37.9723 33.9375C36.3931 36.0431 33.8771 37.3011 31.2451 37.3011H21.1543C20.2243 37.3011 19.4725 38.0529 19.4725 38.9829ZM22.8361 49.0737V40.6647H31.2451C34.9299 40.6647 38.4516 38.9039 40.6632 35.9557L41.3359 35.0576L42.0086 35.954C43.8805 38.4498 46.6891 40.0963 49.7449 40.5419V49.0737C49.7449 56.4921 43.7089 62.5281 36.2905 62.5281C28.8721 62.5281 22.8361 56.4921 22.8361 49.0737ZM36.2905 65.8917C38.682 65.8917 40.9558 65.3822 43.0177 64.4773V66.9647L36.2905 75.0374L29.5633 66.9647V64.4773C31.6252 65.3822 33.899 65.8917 36.2905 65.8917ZM4.33626 82.7098C4.33626 75.2913 10.3723 69.2553 17.7907 69.2553H19.9434L24.6053 83.2412C24.7584 83.702 25.1065 84.0754 25.5556 84.2621C25.7624 84.3495 25.9811 84.3916 26.1997 84.3916C26.457 84.3916 26.716 84.3327 26.9515 84.215L30.828 82.2759L32.8445 86.3105L29.866 101.21H14.4271V91.1188H11.0635V101.21H4.33626V82.7098ZM68.2448 82.7098V101.21H61.5176V91.1188H58.1539V101.21H42.715L39.7348 86.3105L41.7513 82.2759L45.6279 84.215C45.865 84.3327 46.124 84.3916 46.3813 84.3916C46.6 84.3916 46.8186 84.3495 47.0255 84.2638C47.4762 84.0771 47.8243 83.7037 47.9757 83.2429L52.6376 69.2553H54.7903C62.2088 69.2553 68.2448 75.2913 68.2448 82.7098Z" fill="#2980B9"/>
<path d="M101.881 38.9829V15.4377C101.881 14.5076 101.129 13.7559 100.199 13.7559H93.4718C92.5418 13.7559 91.79 14.5076 91.79 15.4377V38.9829H88.4264V25.5285C88.4264 24.5984 87.6747 23.8467 86.7446 23.8467H80.0174C79.0874 23.8467 78.3356 24.5984 78.3356 25.5285V38.9829H74.972V30.5739C74.972 29.6439 74.2202 28.8921 73.2902 28.8921H66.563C65.6329 28.8921 64.8812 29.6439 64.8812 30.5739V38.9829H61.5176V42.3465H105.244V38.9829H101.881ZM95.1536 17.1195H98.5172V38.9829H95.1536V17.1195ZM81.6992 27.2103H85.0628V38.9829H81.6992V27.2103ZM68.2448 32.2557H71.6084V38.9829H68.2448V32.2557Z" fill="#2980B9"/>
<path d="M77.3501 10.3926H86.7447C87.192 10.3926 87.6192 10.216 87.9337 9.8998L91.7901 6.04343V10.3926H95.1537V1.98356C95.1537 1.05352 94.4019 0.301758 93.4719 0.301758H85.0629V3.66536H89.412L86.0484 7.02897H76.6539C76.2065 7.02897 75.7793 7.20556 75.4648 7.52174L65.374 17.6126L67.7521 19.9906L77.3501 10.3926Z" fill="#2980B9"/>
</svg>
