<svg width="102" height="102" viewBox="0 0 102 102" fill="none" xmlns="http://www.w3.org/2000/svg">
<path d="M21.3944 77.6711C20.98 78.0856 20.4076 78.3027 19.7957 78.2829C19.2036 78.2435 18.651 77.9672 18.276 77.5132C12.2167 70.0329 8.90088 60.638 8.90088 51.0458C8.90088 27.835 27.7892 8.94666 51 8.94666C60.5922 8.94666 69.9871 12.2822 77.4674 18.3218C77.9411 18.6968 78.2174 19.2494 78.2372 19.8415C78.2766 20.4336 78.0398 21.0257 77.6253 21.4402L21.3944 77.6711ZM51 13.1506C30.0985 13.1506 13.1049 30.1443 13.1049 51.0458C13.1049 59.0196 15.5325 66.5591 20.1115 72.9934L72.9476 20.1573C66.5134 15.5586 58.9738 13.1506 51 13.1506Z" fill="#0082FF"/>
<path d="M51 101.573C23.1313 101.573 0.473145 78.9151 0.473145 51.0464C0.473145 23.1776 23.1313 0.519501 51 0.519501C78.8687 0.519501 101.527 23.1776 101.527 51.0464C101.527 78.9151 78.8687 101.573 51 101.573ZM51 4.7235C25.4603 4.7235 4.67714 25.5066 4.67714 51.0464C4.67714 76.5861 25.4603 97.3692 51 97.3692C76.5398 97.3692 97.3229 76.5861 97.3229 51.0464C97.3229 25.5066 76.5398 4.7235 51 4.7235Z" fill="#0082FF"/>
<path d="M51 93.1455C41.4077 93.1455 32.0129 89.8099 24.5326 83.7704C24.0589 83.3954 23.7825 82.8428 23.7628 82.2507C23.7233 81.6585 23.9602 81.0664 24.3747 80.6519L80.6055 24.4211C81.0003 24.0263 81.5332 23.8092 82.0858 23.8092C82.1253 23.8092 82.1648 23.8092 82.2042 23.8092C82.7964 23.8487 83.349 24.125 83.724 24.579C89.7635 32.0396 93.0991 41.4541 93.0991 51.0464C93.0991 74.2571 74.2107 93.1455 51 93.1455ZM81.8885 29.0987L29.0523 81.9349C35.4866 86.5139 43.0262 88.9415 51 88.9415C71.9015 88.9415 88.8951 71.9479 88.8951 51.0464C88.8951 43.0726 86.4872 35.533 81.8885 29.0987Z" fill="#0082FF"/>
</svg>
