<svg width="115" height="114" viewBox="0 0 115 114" fill="none" xmlns="http://www.w3.org/2000/svg">
<path d="M0.922607 113.402V109.563H17.3286V80.6144H13.6611V69.4896H20.9472V62.7659C20.9472 59.4896 23.1477 56.58 26.3018 55.6753L33.7102 53.5726V50.4186C31.3874 48.3159 30.0671 45.3574 30.0671 42.2523V38.6092C30.0671 32.5211 35.006 27.5822 41.0941 27.5822C47.1821 27.5822 52.1211 32.5211 52.1211 38.6092V42.2523C52.1211 45.3574 50.8008 48.3159 48.478 50.4186V53.5726L55.8864 55.6753C58.8204 56.5066 60.9475 59.1228 61.192 62.2035H71.2899L80.9477 52.5457C76.6689 50.932 73.8083 46.8 73.8083 42.2523V38.6092C73.8083 32.5211 78.7472 27.5822 84.8353 27.5822C90.9233 27.5822 95.8622 32.5211 95.8622 38.6092V42.2523C95.8622 45.2596 94.5908 48.1936 92.3659 50.2719C94.5175 51.4455 95.8622 53.6704 95.8622 56.1399V58.5605H103.148V82.3259C103.148 85.4066 102.048 88.3651 100.019 90.6878C98.0383 92.9617 95.3488 94.4776 92.3903 94.9666L93.8573 109.539H114.078V113.378H0.922607V113.402ZM89.9942 109.588L88.5517 95.1867H85.1042L86.5468 109.588H89.9942ZM82.7081 109.588L81.2655 95.1867H72.1457V109.588H82.7081ZM68.3315 109.588V87.9005H30.0671V84.0619H68.3315V80.6144H21.1428V84.0863H26.6196V87.925H21.1428V109.612H25.3238L28.9668 102.326H60.483L64.126 109.612H68.3315V109.588ZM59.8473 109.588L58.1113 106.116H31.3385L29.6025 109.588H59.8473ZM90.2876 91.3724C95.251 91.3724 99.3097 87.3382 99.3097 82.3504V62.3991H95.8378V78.7073C95.8378 83.7929 91.7057 87.9005 86.6446 87.9005H72.1701V91.3724H90.2876ZM86.6446 84.0619C89.603 84.0619 92.0236 81.6413 92.0236 78.6829V56.5555C91.7791 57.6069 91.2656 58.5605 90.5077 59.3184L77.6225 72.2036V80.6144H72.1457V84.0863H86.6446V84.0619ZM73.7838 76.7757V73.3038H17.4998V76.7757H73.7838ZM55.6663 66.0422C54.7128 66.0422 53.9304 66.8246 53.9304 67.7781C53.9304 68.7317 54.7128 69.5141 55.6663 69.5141H74.9085L87.7937 56.6289C88.1605 56.2621 88.3561 55.7731 88.3561 55.2597C88.3561 54.1839 87.4759 53.3037 86.4001 53.3037C85.8866 53.3037 85.3731 53.5237 85.0308 53.866L72.8547 66.0422H55.6663ZM50.4095 69.4896C50.214 68.9028 50.1161 68.316 50.1161 67.7537C50.1161 64.6974 52.6101 62.2035 55.6663 62.2035H57.3045C57.0844 60.8343 56.1064 59.7341 54.8106 59.3673L47.3533 57.2401C46.3753 58.5116 44.2726 60.5654 41.0696 60.5654C38.0134 60.5654 35.984 58.7561 34.786 57.2401L27.3287 59.3673C25.8128 59.8074 24.7614 61.2011 24.7614 62.7903V69.5141H50.4095V69.4896ZM37.5488 54.4773C38.0134 55.1863 39.2359 56.7267 41.0941 56.7267C42.9523 56.7267 44.1992 55.1619 44.6393 54.4773V52.668C43.4657 53.0592 42.2677 53.2792 41.0941 53.2792C39.9205 53.2792 38.698 53.0836 37.5488 52.668V54.4773ZM84.8108 31.4209C80.8499 31.4209 77.6225 34.6483 77.6225 38.6092V42.2523C77.6225 46.2132 80.8499 49.4406 84.8108 49.4406C88.7717 49.4406 91.9991 46.2132 91.9991 42.2523V38.6092C92.0236 34.6483 88.7962 31.4209 84.8108 31.4209ZM41.0941 31.4209C37.1332 31.4209 33.9058 34.6483 33.9058 38.6092V42.2523C33.9058 46.2132 37.1332 49.4406 41.0941 49.4406C45.055 49.4406 48.2824 46.2132 48.2824 42.2523V38.6092C48.2824 34.6483 45.055 31.4209 41.0941 31.4209ZM57.4023 18.6579H44.6393V0.271484H88.5517V18.6824H70.9232L57.3778 29.9539V18.6579H57.4023ZM61.2165 14.8437V21.7875L69.554 14.8437H84.7374V4.0857H48.478V14.8437H61.2165ZM77.4269 11.3718V7.55761H81.2655V11.3963H77.4269V11.3718ZM59.2116 11.3718V7.55761H73.9794V11.3963H59.2116V11.3718ZM51.9255 11.3718V7.55761H55.7641V11.3963H51.9255V11.3718Z" fill="#0082FF"/>
<path d="M88.4538 0.369429V18.5847H70.8986L57.5 29.7584V18.5847H44.737V0.369429H88.4538ZM48.3801 14.9417H61.143V21.9833L69.6028 14.9417H84.8352V4.01249H48.4045V14.9417H48.3801ZM81.1676 7.65555V11.2986H77.5246V7.65555H81.1676ZM73.8815 7.65555V11.2986H59.3093V7.65555H73.8815ZM55.6662 7.65555V11.2986H52.0232V7.65555H55.6662ZM84.8107 27.6802C90.8499 27.6802 95.7399 32.5946 95.7399 38.6093V42.2524C95.7399 45.4309 94.3707 48.2916 92.1946 50.2965C94.3951 51.4456 95.7399 53.6706 95.7399 56.14V58.6584H103.026V82.3505C103.026 88.7075 98.356 93.9643 92.268 94.9423L93.735 109.686H113.955V113.329H1.02031V109.686H17.4263V80.5168H13.7588V69.5876H21.0449V62.7905C21.0449 59.5631 23.221 56.6779 26.3261 55.7733L33.7834 53.6461V50.3943C31.5584 48.3894 30.1403 45.5043 30.1403 42.2769V38.6338C30.1403 32.5946 35.0548 27.7046 41.0695 27.7046C47.0842 27.7046 51.9987 32.6191 51.9987 38.6338V42.2769C51.9987 45.5043 50.5806 48.3894 48.3556 50.3943V53.6461L55.8129 55.7733C58.7714 56.629 60.8496 59.2697 61.0697 62.3015H71.2898L81.0698 52.5214C76.8644 50.9811 73.8571 46.9713 73.8571 42.2524V38.6093C73.8815 32.5946 78.796 27.6802 84.8107 27.6802ZM84.8107 49.5385C88.8205 49.5385 92.0968 46.2622 92.0968 42.2524V38.6093C92.0968 34.5995 88.8205 31.3232 84.8107 31.3232C80.8009 31.3232 77.5246 34.5995 77.5246 38.6093V42.2524C77.5246 46.2867 80.8009 49.5385 84.8107 49.5385ZM41.094 49.5385C45.1038 49.5385 48.3801 46.2622 48.3801 42.2524V38.6093C48.3801 34.5995 45.1038 31.3232 41.094 31.3232C37.0842 31.3232 33.8078 34.5995 33.8078 38.6093V42.2524C33.8078 46.2867 37.0597 49.5385 41.094 49.5385ZM41.094 53.1816C39.8226 53.1816 38.6001 52.9371 37.4509 52.5459V54.5019C37.891 55.2109 39.1624 56.8246 41.094 56.8246C43.0255 56.8246 44.2969 55.1865 44.737 54.5019V52.5459C43.5879 52.9615 42.3654 53.1816 41.094 53.1816ZM55.6662 69.5876H74.9573L87.867 56.6779C88.2582 56.2867 88.4538 55.7733 88.4538 55.2354C88.4538 54.1107 87.5491 53.1816 86.4 53.1816C85.8621 53.1816 85.3242 53.4016 84.9574 53.7684L72.8057 65.9445H55.6662C54.6638 65.9445 53.8325 66.7514 53.8325 67.7783C53.8325 68.7807 54.6638 69.5876 55.6662 69.5876ZM72.0722 84.1598H86.6445C89.6518 84.1598 92.1213 81.7148 92.1213 78.683V56.1156C92.1213 55.9933 92.0968 55.8711 92.0724 55.7244C91.9501 57.0202 91.3878 58.2916 90.4587 59.2207L77.549 72.1304V80.4923H72.0722V84.1598ZM41.094 60.4922C37.9644 60.4922 35.9106 58.5117 34.8348 57.1425L27.3286 59.2941C25.7638 59.7342 24.688 61.1768 24.688 62.7905V69.5876H50.5317C50.3361 69.0252 50.1894 68.414 50.1894 67.7538C50.1894 64.7465 52.6344 62.277 55.6662 62.277H57.4022C57.2066 60.8589 56.2286 59.6609 54.8349 59.2452L47.3287 57.0936C46.2774 58.5117 44.2236 60.4922 41.094 60.4922ZM72.0722 91.4459H90.2875C95.2998 91.4459 99.4074 87.3628 99.4074 82.3261V62.277H95.7643V78.683C95.7643 83.6953 91.6812 87.8029 86.6445 87.8029H72.0722V91.4459ZM17.4019 76.8737H73.8815V73.2306H17.4019V76.8737ZM21.0449 84.1598H26.5217V87.8029H21.0449V109.661H25.3726L29.0156 102.375H60.4095L64.0526 109.661H68.3802V87.8029H30.1648V84.1598H68.4292V80.5168H21.0449V84.1598ZM86.4733 109.661H90.0919L88.6249 95.089H85.0063L86.4733 109.661ZM72.0722 109.661H82.8058L81.3388 95.089H72.0478V109.661H72.0722ZM29.4557 109.661H59.9939L58.1601 106.018H31.265L29.4557 109.661ZM88.6494 0.173828H88.4538H44.737H44.5414V0.369429V18.5847V18.7559H44.737H57.3044V29.7584V30.1496L57.5978 29.9051L70.972 18.7559H88.4538H88.6494V18.5603V0.369429V0.173828ZM48.5512 4.18364H84.6151V14.7461H69.5539H69.4805L69.4316 14.795L61.2897 21.5921V14.9417V14.7461H61.0941H48.5268V4.18364H48.5512ZM81.3632 7.45995H81.1676H77.5246H77.3534V7.65555V11.2986V11.4942H77.549H81.1921H81.3877V11.2986V7.65555V7.45995H81.3632ZM74.0771 7.45995H73.8815H59.3093H59.1137V7.65555V11.2986V11.4942H59.3093H73.8815H74.0771V11.2986V7.65555V7.45995ZM55.8374 7.45995H55.6418H51.9987H51.8031V7.65555V11.2986V11.4942H51.9987H55.6418H55.8374V11.2986V7.65555V7.45995ZM84.8107 27.509C78.6737 27.509 73.6859 32.4968 73.6859 38.6338V42.2769C73.6859 46.8246 76.4977 50.9322 80.752 52.6192L71.2165 62.1548H61.2408C60.9719 59.0741 58.8203 56.4823 55.8863 55.6266L48.5512 53.5239V50.4921C50.874 48.3894 52.1943 45.4065 52.1943 42.2769V38.6338C52.1943 32.4968 47.2065 27.509 41.0695 27.509C34.9326 27.509 29.9447 32.4968 29.9447 38.6338V42.2769C29.9447 45.382 31.265 48.3649 33.5878 50.4921V53.5239L26.2528 55.6266C23.0743 56.5312 20.8249 59.4897 20.8249 62.8149V69.4409H13.7588H13.5632V69.6365V80.5657V80.7613H13.7588H17.2307V109.539H1.02031H0.824707V109.735V113.378V113.573H1.02031H113.98H114.175V113.378V109.735V109.539H113.98H93.9306L92.488 95.1379C95.422 94.6245 98.1115 93.1085 100.092 90.8347C102.121 88.4875 103.222 85.5046 103.222 82.3994V58.7073V58.5117H103.026H95.9355V56.1889C95.9355 53.7439 94.6396 51.519 92.5125 50.2965C94.6885 48.1938 95.9355 45.3087 95.9355 42.3013V38.6582C95.9355 32.4968 90.9477 27.509 84.8107 27.509ZM84.8107 49.3674C80.8987 49.3674 77.6957 46.1889 77.6957 42.2524V38.6093C77.6957 34.6973 80.8742 31.4944 84.8107 31.4944C88.7472 31.4944 91.9257 34.6729 91.9257 38.6093V42.2524C91.9257 46.1889 88.7227 49.3674 84.8107 49.3674ZM41.094 49.3674C37.182 49.3674 33.979 46.1889 33.979 42.2524V38.6093C33.979 34.6973 37.1575 31.4944 41.094 31.4944C45.0304 31.4944 48.2089 34.6729 48.2089 38.6093V42.2524C48.1845 46.1889 45.006 49.3674 41.094 49.3674ZM37.6221 54.453V52.8148C38.7468 53.1816 39.9204 53.3772 41.094 53.3772C42.2676 53.3772 43.4167 53.1816 44.5659 52.8148V54.453C44.1013 55.1376 42.9033 56.6535 41.094 56.6535C39.2847 56.6535 38.0866 55.162 37.6221 54.453ZM55.6662 69.4164C54.7616 69.4164 54.0281 68.6829 54.0281 67.7783C54.0281 66.8736 54.7616 66.1401 55.6662 66.1401H72.8057H72.8791L72.928 66.0912L85.0797 53.9395C85.422 53.5972 85.911 53.4016 86.4 53.4016C87.4269 53.4016 88.2582 54.2329 88.2582 55.2598C88.2582 55.7488 88.0626 56.2378 87.7203 56.5801L74.8595 69.4409H55.6662V69.4164ZM77.7202 72.2526L90.5809 59.3919C91.1922 58.7806 91.6567 58.0471 91.9257 57.2158V78.7075C91.9257 81.617 89.554 83.9887 86.6445 83.9887H72.2434V80.7124H77.5246H77.7202V80.5168V72.2526ZM41.094 60.6633C44.2969 60.6633 46.3996 58.6339 47.4021 57.3381L54.786 59.4408C56.0085 59.7831 56.9376 60.8345 57.1821 62.1059H55.6662C52.5611 62.1059 50.0182 64.6487 50.0182 67.7538C50.0182 68.2917 50.1161 68.8296 50.2872 69.392H24.8836V62.766C24.8836 61.2257 25.9105 59.8564 27.4019 59.4408L34.7859 57.3381C35.7883 58.6339 37.891 60.6633 41.094 60.6633ZM95.9355 62.4971H99.2118V82.3505C99.2118 87.265 95.202 91.2748 90.2875 91.2748H72.2434V87.9985H86.6445C91.779 87.9985 95.9355 83.8175 95.9355 78.7075V62.4971ZM17.5975 73.4262H73.7104V76.7026H17.5975V73.4262ZM21.2405 80.7124H68.2336V83.9887H30.1648H29.9692V84.1843V87.8273V88.0229H30.1648H68.2336V109.515H64.1993L60.6051 102.326L60.5562 102.228H60.434H29.0401H28.9178L28.8689 102.326L25.2748 109.49H21.2405V87.9985H26.5217H26.7173V87.8029V84.1598V83.9642H26.5217H21.2405V80.7124ZM85.2019 95.2846H88.4538L89.8719 109.49H86.62L85.2019 95.2846ZM72.2434 95.2846H81.1676L82.5857 109.49H72.2434V95.2846ZM31.3873 106.214H58.0623L59.7005 109.49H29.7491L31.3873 106.214Z" fill="#0082FF"/>
</svg>
