<svg width="86" height="114" viewBox="0 0 86 114" fill="none" xmlns="http://www.w3.org/2000/svg">
<path d="M57.4537 14.2828C44.999 7.98932 29.996 10.3956 20.1215 20.2704C8.6449 31.7468 7.49624 50.046 17.4497 62.836C17.8016 63.288 18.3275 63.5246 18.8591 63.5246C19.2422 63.5246 19.6281 63.4019 19.9538 63.1482C20.7316 62.5429 20.8714 61.4219 20.2663 60.6441C11.4161 49.2722 12.4389 33 22.6452 22.7937C31.4271 14.0114 44.7686 11.8712 55.8446 17.4678C56.7239 17.9127 57.7974 17.5593 58.2419 16.6798C58.6862 15.8003 58.3337 14.7271 57.4537 14.2828Z" fill="#0082FF"/>
<path d="M71.7027 28.534C71.2582 27.6545 70.1854 27.3015 69.3052 27.7456C68.4257 28.1899 68.0726 29.2629 68.5168 30.1428C74.1095 41.2171 71.9681 54.5569 63.1882 63.3365C52.9817 73.5426 36.7098 74.5652 25.3378 65.7154C24.5598 65.1104 23.439 65.2501 22.8337 66.0277C22.2285 66.8055 22.3685 67.9265 23.1462 68.5318C28.9722 73.0658 35.9408 75.2958 42.8874 75.2958C51.1909 75.2958 59.463 72.1088 65.712 65.8598C75.5843 55.9877 77.9918 40.9876 71.7027 28.534Z" fill="#0082FF"/>
<path d="M67.0922 21.7382C66.6502 21.238 66.1857 20.7439 65.7118 20.2702C65.2379 19.7963 64.7441 19.3319 64.2438 18.8898C63.5054 18.237 62.3775 18.3068 61.7254 19.0453C61.0723 19.7835 61.1418 20.9111 61.8802 21.5637C62.3258 21.9574 62.7659 22.3713 63.1883 22.7935C63.6102 23.2159 64.0242 23.6558 64.4181 24.1014C64.7706 24.5004 65.262 24.704 65.7558 24.704C66.1758 24.704 66.5973 24.5565 66.9368 24.2566C67.6754 23.6043 67.7448 22.4766 67.0922 21.7382Z" fill="#0082FF"/>
<path d="M85.0333 46.2636C86.2231 44.3116 86.2231 41.8869 85.0328 39.9352L82.6853 36.0857C82.3762 35.5784 82.2565 34.9759 82.349 34.3895L83.0487 29.9437C83.4054 27.678 82.4746 25.4327 80.62 24.0834L76.9819 21.4372C76.5009 21.0871 76.159 20.5765 76.019 19.9984L74.9595 15.6198C74.4216 13.3957 72.7057 11.68 70.4819 11.1418L66.1031 10.082C65.525 9.94203 65.0139 9.60014 64.6643 9.11914L62.0176 5.48012C60.6686 3.62556 58.423 2.6943 56.158 3.05123L51.7107 3.75095C51.1242 3.84317 50.5216 3.72375 50.0147 3.41458L46.1645 1.06642C44.2126 -0.123812 41.7879 -0.12359 39.8361 1.06642L35.9863 3.41392C35.4794 3.72331 34.8772 3.84229 34.2901 3.75029L29.8441 3.05057C27.5791 2.69408 25.3333 3.6249 23.9843 5.47946L21.338 9.11759C20.9879 9.59859 20.4771 9.94049 19.8988 10.0805L15.5202 11.14C13.2966 11.6778 11.5804 13.3937 11.0422 15.6176L9.9824 19.9964C9.84241 20.5745 9.50074 21.0855 9.01952 21.4352L5.3805 24.0819C3.52594 25.4307 2.59534 27.6758 2.95161 29.9415L3.65133 34.389C3.74355 34.9757 3.62413 35.5781 3.31496 36.085L0.967018 39.9354C-0.222767 41.8873 -0.222767 44.312 0.967239 46.2636L3.31474 50.1134C3.62391 50.6207 3.74355 51.2231 3.65111 51.8096L2.95139 56.2556C2.59468 58.5211 3.5255 60.7666 5.38006 62.1156L9.01819 64.7619C9.49919 65.1116 9.84109 65.6226 9.98108 66.2007L11.0406 70.5793C11.5784 72.8034 13.2943 74.519 15.5182 75.0573L17.3467 75.4998L4.97248 103.102C4.70953 103.689 4.78229 104.372 5.16333 104.89C5.54415 105.407 6.17376 105.681 6.81244 105.604L16.769 104.414L22.5048 112.638C22.8405 113.119 23.3883 113.402 23.9679 113.402C24.0234 113.402 24.0796 113.399 24.1353 113.394C24.7753 113.334 25.3337 112.934 25.5967 112.348L38.2343 84.1559L39.8356 85.1322C40.8115 85.7273 41.9056 86.0248 42.9998 86.0248C44.0941 86.0248 45.1881 85.7271 46.164 85.1322L47.8231 84.1207L60.4766 112.348C60.7396 112.935 61.2977 113.334 61.938 113.394C61.9939 113.4 62.0499 113.402 62.1054 113.402C62.685 113.402 63.233 113.12 63.5685 112.639L69.3042 104.414L79.2608 105.604C79.8991 105.68 80.5291 105.408 80.9099 104.89C81.2908 104.372 81.364 103.689 81.1008 103.103L68.7202 75.4848L70.4799 75.0591C72.7035 74.5213 74.4196 72.8054 74.9579 70.5815L76.0177 66.2027C76.1577 65.6246 76.4996 65.1136 76.9806 64.7639L80.6196 62.1172C82.4741 60.7684 83.4047 58.5233 83.0485 56.2576L82.3487 51.8101C82.2565 51.2234 82.3759 50.621 82.6851 50.1141L85.0333 46.2636ZM23.6293 108.012L19.0838 101.494C18.707 100.954 18.0625 100.664 17.4084 100.743L9.51799 101.687L20.792 76.5368C20.9981 76.6883 21.183 76.8699 21.3353 77.0797L23.9821 80.7188C24.2335 81.0644 24.5161 81.3778 24.8242 81.6569L18.8901 94.8942C18.4872 95.7936 18.8892 96.8492 19.7884 97.2523C20.0255 97.3587 20.2734 97.4089 20.5171 97.4089C21.1987 97.4089 21.8497 97.0162 22.1463 96.354L28.0594 83.1638C28.6412 83.2436 29.2403 83.2423 29.8416 83.1476L34.289 82.4479C34.5552 82.4061 34.8244 82.4099 35.0864 82.4532L23.6293 108.012ZM76.5557 101.686L68.6651 100.743C68.0103 100.665 67.3665 100.954 66.9897 101.494L62.4442 108.012L50.9822 82.4433C51.2226 82.4105 51.4679 82.4106 51.7105 82.4486L56.1562 83.1483C56.7819 83.2467 57.4053 83.2436 58.0092 83.1536L63.9268 96.3545C64.2238 97.0168 64.8744 97.4094 65.556 97.4094C65.7999 97.4094 66.0478 97.3592 66.2847 97.2528C67.1839 96.8498 67.5861 95.7939 67.183 94.8947L61.2263 81.6069C61.5136 81.3402 61.7792 81.045 62.016 80.7194L64.6623 77.0813C64.829 76.852 65.0334 76.6553 65.2629 76.4963L76.5557 101.686ZM81.9861 44.4055L79.6381 48.256C78.8895 49.4842 78.5998 50.9434 78.8234 52.3645L79.5231 56.8118C79.6702 57.7471 79.2858 58.6739 78.5204 59.2308L74.8812 61.8777C73.7164 62.7251 72.888 63.9629 72.5492 65.363L71.4894 69.7418C71.2672 70.6598 70.559 71.3681 69.6408 71.5904L65.2621 72.6499C63.8617 72.9887 62.6237 73.8171 61.7763 74.9821L59.13 78.6203C58.5732 79.3861 57.6466 79.77 56.7109 79.6227L52.2649 78.923C50.8436 78.6994 49.3842 78.9887 48.1557 79.7377L44.3062 82.0852C43.5005 82.5762 42.4991 82.5762 41.6939 82.0852L37.8435 79.7375C36.8859 79.1535 35.7881 78.8492 34.6773 78.8492C34.3633 78.8492 34.0477 78.8735 33.7348 78.9228L29.2872 79.6225C28.3518 79.7698 27.4251 79.3852 26.8683 78.6198L24.2213 74.9808C23.3739 73.816 22.1361 72.9876 20.736 72.6488L16.3573 71.589C15.4393 71.3668 14.7309 70.6587 14.5087 69.7404L13.4491 65.3619C13.1103 63.9616 12.2821 62.7234 11.1169 61.8759L7.47899 59.2294C6.71337 58.6726 6.32923 57.7455 6.47652 56.8103L7.17624 52.3643C7.39982 50.943 7.11055 49.4838 6.36152 48.2553L4.01402 44.4053C3.52284 43.5997 3.52284 42.5985 4.01402 41.7931L6.36196 37.9427C7.11078 36.7144 7.40026 35.2553 7.17668 33.8342L6.47696 29.3868C6.3299 28.4516 6.71425 27.5248 7.47965 26.9679L11.1189 24.321C12.2837 23.4735 13.1121 22.2357 13.4509 20.8356L14.5107 16.4569C14.7329 15.5389 15.441 14.8305 16.3593 14.6083L20.738 13.5488C22.1383 13.21 23.3763 12.3815 24.2236 11.2165L26.8698 7.57839C27.4267 6.81277 28.3533 6.42819 29.289 6.5757L33.735 7.27541C35.1565 7.49944 36.6159 7.20973 37.8442 6.4607L41.6937 4.11319C42.4994 3.62224 43.5007 3.62224 44.3059 4.11319L48.1564 6.46092C49.3846 7.21017 50.8442 7.49966 52.2651 7.27585L56.7126 6.57614C57.6477 6.42951 58.5747 6.81343 59.1316 7.57883L61.7785 11.2178C62.626 12.3826 63.8637 13.2111 65.2638 13.5499L69.6426 14.6096C70.5606 14.8319 71.2689 15.54 71.4912 16.4582L72.5507 20.8367C72.8895 22.2371 73.7177 23.4753 74.883 24.3227L78.5211 26.969C79.2867 27.5259 79.6708 28.4529 79.5236 29.3882L78.8238 33.8342C78.6003 35.2555 78.8895 36.7146 79.6386 37.9431L81.9861 41.7931C82.4775 42.5988 82.4775 43.5999 81.9861 44.4055Z" fill="#0082FF"/>
<path d="M63.8802 37.5476C63.487 36.337 62.4575 35.4918 61.1934 35.3418L50.4564 34.0687L45.9277 24.2508C45.3945 23.095 44.2726 22.377 42.9997 22.377C41.727 22.377 40.6049 23.095 40.0717 24.2508L35.543 34.0689L24.8059 35.3421C23.5418 35.492 22.5122 36.3372 22.1192 37.5478C21.726 38.7577 22.0621 40.0468 22.9963 40.9108L30.9344 48.2519L28.8273 58.8569C28.5794 60.1055 29.065 61.3457 30.0949 62.0937C30.6631 62.5063 31.3223 62.7153 31.9858 62.7153C32.5252 62.7153 33.067 62.5773 33.5648 62.2987L42.9995 57.0178L52.4341 62.2987C53.545 62.9205 54.8743 62.842 55.9042 62.0939C56.9341 61.3457 57.4197 60.1053 57.1716 58.8569L55.0645 48.2521L63.0027 40.9111C63.9372 40.047 64.2734 38.7582 63.8802 37.5476ZM51.9085 46.3102C51.4529 46.7315 51.249 47.3593 51.3698 47.9679L53.526 58.82L43.871 53.4157C43.6003 53.2643 43.3 53.1884 42.9995 53.1884C42.6989 53.1884 42.3988 53.264 42.1279 53.4157L32.473 58.82L34.6292 47.9679C34.7504 47.3591 34.5462 46.7315 34.0904 46.3102L25.9672 38.7978L36.9552 37.495C37.5713 37.422 38.1054 37.0339 38.3655 36.4706L42.9997 26.4235L47.6339 36.4706C47.8939 37.0339 48.4278 37.422 49.0441 37.495L60.0317 38.7978L51.9085 46.3102Z" fill="#0082FF"/>
</svg>
