<svg width="84" height="83" viewBox="0 0 84 83" fill="none" xmlns="http://www.w3.org/2000/svg">
<path d="M28.0053 57.8759L24.1304 61.7087L23.8752 61.9611L24.0328 62.2837L29.9057 74.3028L30.2114 74.9285L30.7066 74.4388L31.972 73.1872L32.1082 73.0525L32.1195 72.8613L33.0167 57.7276L74.8153 16.3841C74.816 16.3834 74.8167 16.3828 74.8173 16.3821C75.3144 15.8986 75.9498 14.9959 76.5676 13.9194C77.1925 12.8305 77.8221 11.5242 78.2957 10.2093M28.0053 57.8759L73.4568 5.41227C74.967 4.87877 76.1414 4.65774 76.989 4.60829C77.4119 4.58362 77.7629 4.60112 78.0384 4.64854C78.1759 4.67223 78.303 4.70479 78.4147 4.74786C78.5175 4.78754 78.639 4.84811 78.7394 4.94533C78.8439 5.04476 78.9099 5.16748 78.9532 5.27239C79 5.38557 79.0351 5.51414 79.0607 5.65243C79.1119 5.9293 79.1312 6.28082 79.1072 6.70235C79.0593 7.54733 78.8353 8.71471 78.2957 10.2093M28.0053 57.8759L25.2769 55.1772L21.3942 59.0177L21.1443 59.2648L20.8272 59.1134L8.65945 53.3044L8.01752 52.9979L8.52326 52.4977L9.7887 51.246L9.92291 51.1133L10.1114 51.1024L25.4164 50.2147L28.0053 57.8759ZM78.2957 10.2093C78.2956 10.2094 78.2956 10.2096 78.2955 10.2097L77.8253 10.0399L78.2957 10.2093ZM72.1516 1.81376L72.1519 1.81365C76.5846 0.240973 79.7331 0.51476 81.4971 2.25955C83.2574 4.00072 83.5358 7.10726 81.9308 11.4886C80.8245 14.5017 79.0071 17.6353 77.5385 19.0879L65.3059 31.1873L65.1235 31.3678L65.1637 31.6213L71.548 71.7901L61.8692 81.3635L48.8443 48.4489L48.5658 47.7452L48.0278 48.2774L36.9308 59.2535L36.7946 59.3882L36.7833 59.5794L35.8861 74.713L29.0873 81.4378L21.281 65.4394L20.9755 64.8132L20.4801 65.3032L16.1268 69.609L13.3984 66.9103L17.7439 62.6122L18.2496 62.1119L17.6077 61.8055L1.44197 54.0885L8.2162 47.388L23.5213 46.5003L23.7098 46.4894L23.844 46.3566L34.7625 35.557L35.3112 35.0143L34.5916 34.7353L1.3227 21.8397L10.9941 12.2737L51.6284 18.5895L51.8778 18.6283L52.0571 18.4507L64.4679 6.15897C65.9537 4.6894 69.1071 2.89152 72.1516 1.81376ZM8.78283 19.8742L8.23398 20.4171L8.95385 20.696L37.9941 31.9449L38.2961 32.0618L38.5263 31.8341L47.79 22.6713L48.4951 21.9739L47.5151 21.8217L12.5857 16.3979L12.3366 16.3592L12.1573 16.5365L8.78283 19.8742ZM67.2421 70.6517L67.4246 70.4713L67.3843 70.2178L61.9008 35.6848L61.748 34.7226L61.0553 35.4077L51.7916 44.5705L51.5567 44.8029L51.6784 45.1101L63.0512 73.8182L63.3298 74.5215L63.8676 73.9895L67.2421 70.6517Z" fill="#00C643" stroke="#CAFFDC"/>
</svg>
