<svg width="98" height="89" viewBox="0 0 98 89" fill="none" xmlns="http://www.w3.org/2000/svg">
<path d="M87.3712 0.882324H24.8118C19.3668 0.882324 14.9598 5.24821 14.9598 10.6126L14.5485 65.6854H2.34611C1.4843 65.6854 0.818359 66.4489 0.818359 67.3103V74.887C0.818359 81.9742 6.49845 87.7889 13.3537 88.1021V88.2H66.0415V88.1021C66.4332 88.1217 66.6682 88.2 66.9424 88.2H66.9816C74.2874 88.1608 80.1829 82.2091 80.1438 74.887V26.7252H96.048C96.9098 26.7252 97.5758 25.9421 97.5758 25.0807V11.1803C97.5953 5.5223 93.0317 0.92148 87.3712 0.882324ZM14.0393 85.0675C8.4571 85.0675 3.9522 80.4667 3.9522 74.887V68.8178H53.702V74.8674C53.6824 78.3914 55.0926 81.7784 57.5801 84.2648C57.8543 84.5389 58.1285 84.676 58.4027 85.0675H14.0393ZM77.0099 74.887C77.0099 80.4667 72.5442 85.0675 66.9816 85.0675H66.9424C61.3407 85.0284 56.8162 80.4667 56.8358 74.8674V67.3103C56.8358 66.4293 56.1503 65.7049 55.2689 65.6854H17.6824L18.0937 10.6321C18.0937 6.99065 21.11 4.0148 24.8118 4.0148H79.9871C78.1851 5.97259 77.0099 8.45899 77.0099 11.2195V74.887ZM94.4419 11.1999V23.5928H80.1438V11.2195C80.1438 7.30389 83.4147 4.0148 87.332 4.0148H87.3712C91.3081 4.05395 94.4615 7.26474 94.4419 11.1999Z" fill="#00C643"/>
<path d="M37.621 39.4312L45.6907 44.9522C46.2195 45.3242 46.9246 45.3242 47.4339 44.9522L55.4839 39.4312C58.2848 37.5321 60.3414 33.5382 60.3414 30.1512V18.9918C60.361 18.4045 60.028 17.8563 59.4992 17.5822L47.1989 11.5326C46.768 11.3173 46.2587 11.3173 45.8278 11.5326L33.5471 17.5626C33.0182 17.8367 32.7048 18.3849 32.7048 18.9722V30.1512C32.744 33.5382 34.8202 37.5321 37.621 39.4312ZM35.8778 19.9511L46.5525 14.6847L57.2271 19.9707V30.1708C57.2271 32.5398 55.6798 35.5352 53.7212 36.8665L46.5329 41.7805L39.3642 36.8665C37.4056 35.5352 35.8778 32.5398 35.8778 30.1708V19.9511Z" fill="#00C643"/>
<path d="M43.9084 32.5202C44.2022 32.8139 44.5939 32.9901 45.0248 32.9901C45.4362 32.9901 45.8475 32.8139 46.1413 32.5202L52.3698 26.2945C52.977 25.6875 52.977 24.6891 52.3698 24.0821C51.7626 23.4752 50.7637 23.4752 50.1565 24.0821L45.0444 29.192L43.0074 27.1167C42.4002 26.5098 41.4013 26.4902 40.7942 27.0971C40.187 27.7041 40.1674 28.7025 40.7746 29.3095L43.9084 32.5202Z" fill="#00C643"/>
<path d="M66.0412 49.4355H28.4351C27.5733 49.4355 26.8682 50.1404 26.8682 51.0018C26.8682 51.8632 27.5733 52.568 28.4351 52.568H66.0412C66.903 52.568 67.6081 51.8632 67.6081 51.0018C67.6081 50.1404 66.903 49.4355 66.0412 49.4355Z" fill="#00C643"/>
<path d="M66.0412 56.6797H28.4351C27.5733 56.6797 26.8682 57.3845 26.8682 58.2459C26.8682 59.1074 27.5733 59.8122 28.4351 59.8122H66.0412C66.903 59.8122 67.6081 59.1074 67.6081 58.2459C67.6081 57.3845 66.903 56.6797 66.0412 56.6797Z" fill="#00C643"/>
</svg>
