<svg width="87" height="79" viewBox="0 0 87 79" fill="none" xmlns="http://www.w3.org/2000/svg">
<path d="M54.7944 0.706445H54.794L32.1854 0.706445L32.185 0.706446C25.8139 0.723639 20.3283 5.26237 19.0377 11.569L19.0377 11.5692L17.6008 18.6391H4.35303C2.1353 18.6391 0.339746 20.4587 0.339746 22.6986V73.947C0.339746 76.1868 2.1353 78.0064 4.35303 78.0064H82.6265C84.8442 78.0064 86.6397 76.1868 86.6397 73.947V22.6986C86.6397 20.4587 84.8442 18.6391 82.6265 18.6391H69.3619L67.9251 11.5694C66.6514 5.26236 61.1656 0.723639 54.7944 0.706445ZM62.6845 12.6574L62.6844 12.6569C61.9145 8.88266 58.6291 6.16306 54.7947 6.14574H54.794L32.1854 6.14574L32.1848 6.14574C28.3669 6.16307 25.0821 8.88287 24.2952 12.6563L24.295 12.6574L23.0931 18.6391H20.3255L21.6495 12.1053C21.6496 12.1052 21.6496 12.1051 21.6496 12.105C22.6938 7.04003 27.0848 3.40303 32.2024 3.38614H54.7938C59.9115 3.40303 64.3026 7.04016 65.3467 12.1053L66.6708 18.6391H63.8864L62.6845 12.6574ZM60.0556 13.1923L60.0557 13.1931L61.1776 18.6391H25.8014L26.907 13.1932C27.4305 10.6601 29.6384 8.82543 32.1854 8.82543H54.7772C57.3415 8.82543 59.5486 10.6604 60.0556 13.1923ZM2.99131 22.6986C2.99131 21.9299 3.5977 21.3188 4.35303 21.3188H82.6265C83.3818 21.3188 83.9882 21.9299 83.9882 22.6986V35.8209C83.9882 41.842 79.1658 46.7195 73.2202 46.7195H13.7593C7.81372 46.7195 2.99131 41.842 2.99131 35.8209V22.6986ZM60.3022 49.3992H66.2171V56.1843C66.2171 56.579 65.913 56.8841 65.5272 56.8841H60.9921C60.6063 56.8841 60.3022 56.579 60.3022 56.1843V49.3992ZM20.7456 49.3992H26.6604V56.1843C26.6604 56.579 26.3564 56.8841 25.9706 56.8841H21.4354C21.0497 56.8841 20.7456 56.579 20.7456 56.1843V49.3992ZM83.9882 73.947C83.9882 74.7157 83.3818 75.3268 82.6265 75.3268H4.35303C3.5977 75.3268 2.99131 74.7157 2.99131 73.947V43.9091C5.50964 47.353 9.49989 49.3992 13.7593 49.3992H18.094V56.1843C18.094 58.0502 19.5873 59.5638 21.4354 59.5638H25.9706C27.8188 59.5638 29.312 58.0502 29.312 56.1843V49.3992H57.6507V56.1843C57.6507 58.0502 59.1439 59.5638 60.9921 59.5638H65.5272C67.3754 59.5638 68.8687 58.0502 68.8687 56.1843V49.3992H73.2202C77.4796 49.3992 81.4698 47.353 83.9882 43.9091V73.947Z" fill="#00C643" stroke="#00C643" stroke-width="0.3"/>
</svg>
