<svg width="26" height="15" viewBox="0 0 26 15" fill="none" xmlns="http://www.w3.org/2000/svg">
<path d="M0.899597 13.2669L1.71851 14.0725C1.97623 14.3241 2.31912 14.4627 2.68559 14.4627C3.05185 14.4627 3.39515 14.3241 3.65287 14.0725L12.9944 4.94588L22.3467 14.0827C22.604 14.3343 22.9473 14.4727 23.3136 14.4727C23.6799 14.4727 24.0234 14.3343 24.2809 14.0827L25.1 13.282C25.6333 12.7614 25.6333 11.9133 25.1 11.3926L13.9649 0.475087C13.7076 0.223698 13.3647 0.0465727 12.9952 0.0465727H12.991C12.6245 0.0465727 12.2816 0.223896 12.0243 0.475087L0.899597 11.3631C0.641872 11.6144 0.500406 11.9596 0.5 12.3174C0.5 12.6754 0.641872 13.0158 0.899597 13.2669Z" fill="black"/>
</svg>
