<svg width="26" height="15" viewBox="0 0 26 15" fill="none" xmlns="http://www.w3.org/2000/svg">
<path d="M25.1004 1.25552L24.2815 0.449923C24.0238 0.198335 23.6809 0.0597334 23.3144 0.0597334C22.9482 0.0597334 22.6049 0.198335 22.3471 0.449923L13.0056 9.57658L3.65328 0.439796C3.39596 0.188208 3.05266 0.0498047 2.6864 0.0498047C2.32014 0.0498047 1.97664 0.188208 1.71912 0.439796L0.900003 1.24043C0.366666 1.76108 0.366666 2.60917 0.900003 3.12982L12.0351 14.0474C12.2924 14.2988 12.6353 14.4759 13.0048 14.4759H13.009C13.3755 14.4759 13.7184 14.2986 13.9757 14.0474L25.1004 3.1594C25.3581 2.90802 25.4996 2.5629 25.5 2.20508C25.5 1.84706 25.3581 1.50671 25.1004 1.25552Z" fill="black"/>
</svg>
