<svg width="31" height="32" viewBox="0 0 31 32" fill="none" xmlns="http://www.w3.org/2000/svg">
<path fill-rule="evenodd" clip-rule="evenodd" d="M30.2213 25.0914C30.2213 28.8338 27.2776 31.8681 23.6459 31.8681H6.57536C2.94424 31.8681 0 28.8338 0 25.0914V7.71025C0 3.96786 2.94366 0.933594 6.57536 0.933594H23.6459C27.2771 0.933594 30.2213 3.96786 30.2213 7.71025V25.0914Z" fill="url(#paint0_radial)"/>
<path fill-rule="evenodd" clip-rule="evenodd" d="M19.6595 28.0502H10.4726C6.95726 28.0502 4.0813 25.1002 4.0813 21.4943V11.4524C4.0813 7.84649 6.95726 4.89648 10.4726 4.89648H19.6595C23.1749 4.89648 26.0508 7.84649 26.0508 11.4524V21.4937C26.0508 25.0996 23.1749 28.0502 19.6595 28.0502ZM19.6595 26.3176C20.9088 26.3176 22.0876 25.8136 22.9793 24.8989C23.871 23.9843 24.3623 22.7752 24.3623 21.4937V11.4524C24.3623 10.1709 23.871 8.96179 22.9793 8.04711C22.0876 7.13243 20.9088 6.6285 19.6595 6.6285H10.4726C9.2233 6.6285 8.04457 7.13243 7.15285 8.04711C6.26112 8.96179 5.76984 10.1709 5.76984 11.4524V21.4937C5.76984 22.7752 6.26112 23.9843 7.15285 24.8989C8.04457 25.8136 9.2233 26.3176 10.4726 26.3176H19.6595Z" fill="#FEFEFE"/>
<path fill-rule="evenodd" clip-rule="evenodd" d="M21.1496 16.3844C21.1496 19.8117 18.4409 22.5901 15.0996 22.5901C11.7584 22.5901 9.05029 19.8117 9.05029 16.3844C9.05029 12.9572 11.759 10.1787 15.1002 10.1787C18.4414 10.1787 21.1496 12.9572 21.1496 16.3844ZM15.0707 12.3256C12.8828 12.3256 11.1092 14.1449 11.1092 16.3892C11.1092 18.6334 12.8828 20.4527 15.0707 20.4527C17.2586 20.4527 19.0322 18.6334 19.0322 16.3892C19.0322 14.1449 17.2586 12.3256 15.0707 12.3256Z" fill="#FEFEFE"/>
<path d="M22.6487 10.3792C22.8085 9.58429 22.3097 8.80713 21.5347 8.64337C20.7597 8.47962 20.0019 8.9913 19.8422 9.78623C19.6825 10.5812 20.1812 11.3583 20.9563 11.5221C21.7313 11.6858 22.489 11.1742 22.6487 10.3792Z" fill="#FEFEFE"/>
<defs>
<radialGradient id="paint0_radial" cx="0" cy="0" r="1" gradientUnits="userSpaceOnUse" gradientTransform="translate(8.78289 31.7907) scale(30.4993 31.2843)">
<stop stop-color="#FDD869"/>
<stop offset="0.25" stop-color="#F2A544"/>
<stop offset="0.38" stop-color="#EA522B"/>
<stop offset="0.55" stop-color="#D83D5F"/>
<stop offset="0.7" stop-color="#C51881"/>
<stop offset="0.85" stop-color="#994B96"/>
<stop offset="0.99" stop-color="#6664AB"/>
<stop offset="1" stop-color="#6664AB"/>
</radialGradient>
</defs>
</svg>
