<?xml version="1.0" encoding="utf-8"?>
<!-- Generator: Adobe Illustrator 24.2.0, SVG Export Plug-In . SVG Version: 6.00 Build 0)  -->
<svg version="1.1" xmlns="http://www.w3.org/2000/svg" xmlns:xlink="http://www.w3.org/1999/xlink" x="0px" y="0px"
	 viewBox="0 0 512 178.5" style="enable-background:new 0 0 512 178.5;" xml:space="preserve">
<style type="text/css">
	.st0{fill:#EAF3FA;}
	.st1{fill-rule:evenodd;clip-rule:evenodd;fill:#767B7D;}
	.st2{fill:#2980B9;}
	.st3{fill-rule:evenodd;clip-rule:evenodd;fill:#FFFFFF;}
	.st4{fill:#FFFFFF;}
</style>
<g id="bg">
</g>
<g id="logo_1_">
	<g id="logo_2_">
		<polygon class="st2" points="42.8,128.5 0,128.5 0,0 128.5,0 128.5,46.4 121.4,46.4 121.4,7.1 7.1,7.1 7.1,121.4 42.8,121.4 		"/>
		<rect x="53.5" y="57.1" class="st2" width="121.4" height="121.4"/>
		<path class="st3" d="M130.5,95.6c-15.3,12.1-22.4,21.9-22.4,21.9l-15.6-10.6l-13.2,13.4l31.2,22.8c0,0,12.4-23.6,21.4-34.1
			c2.9-3.4,6.4-8.6,11.7-13.5c10.9-10.2,24.8-20.6,24.8-20.6S145.7,83.4,130.5,95.6z"/>
	</g>
	<g id="name_1_" transform="matrix(1,0,0,1,243.843003713288,115.54229210152084)">
		<path class="st2" d="M-6.7-94v39.5h5.6v12h-29.4v-12h5V-94h-5v-12h65.1v12h-5.3v39.5h5.3v12H5.2v-12h5.3V-94H-6.7z"/>
		<path class="st2" d="M65.7-62.3l5.9-14.1h-4.2v-11.5h23v11.3h-4.3L68.9-34.8c-0.7,1.5-1.4,2.9-2.3,4.5c-0.9,1.5-2.1,2.9-3.5,4.1
			c-1.4,1.2-3.3,2.2-5.5,3c-2.2,0.8-4.9,1.2-8.2,1.2l0,0c-2.4-0.1-4.4-0.6-6.2-1.5c-1.8-0.8-3.4-1.9-4.8-3.1l0,0l6.8-10.7
			c0.8,0.8,1.8,1.5,2.9,2.2c1.1,0.7,2.1,1,3.1,1l0,0c1.2,0,2.3-0.5,3.1-1.5c0.9-1,1.5-2.2,2-3.4l0,0l1.3-3.8L39.8-76.3h-3.7v-11.6
			h27.9v11.5h-4.3L65.7-62.3z"/>
		<path class="st2" d="M92.5-76.7v-11.2h24.8v11.2h-4.7v5.6H127v-5.6h-4.4v-11.2h24.8v11.2h-4.5v23h4.5v11.1h-24.8v-11.1h4.4v-6.1
			h-14.4v6.1h4.7v11.1H92.5v-11.1h4.3v-23H92.5z"/>
		<path class="st2" d="M173.4-77v8.2c0.1-0.2,0.2-0.5,0.2-0.7c0-0.2,0.2-0.3,0.7-0.3l0,0c2.8,0,4.9-0.4,6.3-1.3
			c1.4-0.9,2.5-2,3.3-3.4c0.8-1.3,1.6-2.8,2.2-4.4c0.6-1.6,1.6-3.1,2.9-4.4c1.3-1.4,3.2-2.5,5.7-3.5c2.5-1,5.9-1.5,10.3-1.5l0,0
			c1.3,0,2.5,0.1,3.9,0.2c1.3,0.1,2.3,0.3,3,0.4l0,0l0.1,11.1c-0.6-0.3-1.7-0.4-3.4-0.4l0,0c-1.8,0-3.2,0.2-4.4,0.6
			c-1.2,0.4-2.2,0.9-3,1.5c-0.8,0.6-1.5,1.4-2.1,2.2c-0.6,0.8-1.1,1.6-1.6,2.5l0,0l-1.1,1.9L207-53.7h4.8v11.1h-29.8v-11.1h3.5
			c-0.5-0.7-1-1.5-1.5-2.3c-0.5-0.8-1-1.6-1.5-2.4l0,0c-2.3,0.5-4.9,0.8-7.9,0.8l0,0h-1.4v3.9h4.2v11.1h-24.1v-11.1h4.1V-77h-4.1
			v-11h26.1v11H173.4z"/>
		<path class="st2" d="M217.1-87.9h51.1v18.8H257v-7.6h-6.5v23h6.5v11.2h-28.4v-11.2h6.4v-23h-6.6v7.6h-11.1V-87.9z"/>
		<path class="st2" d="M2.2-12v39.4h5.6v12h-29.4v-12h5V-12h-5v-12h65.1v12h-5.3v39.4h5.3v12H14.1v-12h5.4V-12H2.2z"/>
		<path class="st2" d="M83.3,17.3L83.3,17.3c0-1.3-0.1-2.7-0.4-4c-0.3-1.4-0.8-2.5-1.3-3.6c-0.6-1-1.3-1.9-2.1-2.5
			c-0.8-0.7-1.7-1-2.7-1l0,0c-1.7,0-3.2,0.9-4.5,2.8c-1.3,1.9-2,4.4-2,7.7l0,0c0,1.7,0.1,3.3,0.4,4.7c0.3,1.4,0.8,2.7,1.3,3.8
			c0.6,1.1,1.3,1.9,2.1,2.5c0.8,0.6,1.7,0.9,2.7,0.9l0,0c1.9,0,3.5-1,4.7-3.1C82.7,23.5,83.3,20.7,83.3,17.3z M48.1,57.9V46h3.8V6.1
			h-3.8V-5.9h20.8l1.5,3.2c0.4-0.3,1-0.7,1.7-1.1c0.7-0.5,1.5-0.9,2.4-1.3c0.9-0.4,1.9-0.7,3.1-1c1.2-0.3,2.4-0.4,3.8-0.4l0,0
			c3.5,0,6.6,0.6,9.3,1.9c2.7,1.3,4.9,3,6.7,5.2c1.8,2.2,3.1,4.7,4,7.6c0.9,2.9,1.3,5.9,1.3,9.1l0,0c0,3.6-0.5,6.9-1.6,9.8
			c-1.1,2.9-2.5,5.3-4.4,7.3c-1.8,2-4,3.5-6.6,4.6c-2.5,1.1-5.3,1.6-8.2,1.6l0,0c-1.9,0-3.5-0.1-4.9-0.4c-1.4-0.3-2.6-0.7-3.5-1.1
			c-0.9-0.4-1.7-0.8-2.2-1.2c-0.5-0.4-0.9-0.6-1.1-0.8l0,0V46h4.9v11.9H48.1z"/>
		<path class="st2" d="M110.8,8.4L107-2.1c0.9-0.5,2-1.2,3.4-1.9c1.4-0.7,3-1.4,4.7-2.1c1.7-0.7,3.6-1.3,5.5-1.7
			c2-0.5,4-0.7,6.1-0.7l0,0c2.7,0,5.5,0.3,8.4,0.9c2.9,0.6,5.6,1.6,7.9,3c2.4,1.4,4.3,3.3,5.9,5.7c1.6,2.4,2.3,5.4,2.3,9.1l0,0v17.7
			h5.4v11.6h-19.4l-2.2-4.1c-0.8,1.1-1.8,2.1-2.9,2.9c-1.1,0.8-2.2,1.3-3.3,1.8c-1.1,0.4-2.2,0.7-3.3,0.9c-1.1,0.2-2,0.3-2.8,0.3
			l0,0c-2.2,0-4.3-0.3-6.4-0.9c-2.1-0.6-4-1.5-5.7-2.7c-1.7-1.2-3.1-2.8-4.1-4.7c-1.1-1.9-1.6-4.2-1.6-6.8l0,0
			c0-2.5,0.5-4.8,1.5-6.9c1-2.1,2.4-3.8,4.1-5.3c1.7-1.4,3.7-2.6,6-3.3c2.3-0.8,4.7-1.2,7.3-1.2l0,0c1.3,0,2.5,0.1,3.6,0.4
			c1.1,0.3,2,0.6,2.7,1s1.4,0.7,1.8,1.1c0.5,0.4,0.7,0.6,0.9,0.7l0,0V9.3c0-2-0.8-3.4-2.4-4.1c-1.6-0.7-3.7-1-6.2-1l0,0
			c-2.7,0-5.2,0.4-7.5,1.3C114.5,6.5,112.5,7.4,110.8,8.4L110.8,8.4z M127.1,29.3L127.1,29.3c1.4,0,2.6-0.3,3.6-1
			c1-0.7,1.8-1.3,2.2-2l0,0v-3.5c-0.1-0.1-0.2-0.3-0.4-0.6c-0.2-0.3-0.5-0.6-1-0.9c-0.4-0.3-0.9-0.6-1.6-0.8
			c-0.6-0.2-1.4-0.4-2.4-0.4l0,0c-1.8,0-3.1,0.4-4,1.3c-0.8,0.9-1.3,2.1-1.3,3.5l0,0c0,1.3,0.5,2.3,1.4,3.1
			C124.6,29,125.7,29.3,127.1,29.3z"/>
		<path class="st2" d="M188.2,39.4h-27.4V28.2h4.3v-23h-4.3V-5.8h27c6,0,10.4,1,13.2,3.1c2.8,2.1,4.3,5,4.3,8.8l0,0
			c0,2.2-0.2,4.1-0.7,5.5c-0.5,1.5-1.3,2.6-2.5,3.5l0,0c1.7,1,3.1,2.3,4.1,4c1.1,1.7,1.6,3.8,1.6,6.4l0,0c0,4.9-1.5,8.4-4.6,10.6
			C200.2,38.3,195.2,39.4,188.2,39.4L188.2,39.4z M180,28.2h5.8c1.5,0,2.9-0.3,4-0.9c1.2-0.6,1.8-1.5,1.8-2.5l0,0
			c0-1-0.5-1.9-1.6-2.6c-1.1-0.7-2.6-1.1-4.5-1.1l0,0H180V28.2z M184.5,5.4H180V11h4.4c1.9,0,3.2-0.3,3.9-0.8c0.7-0.5,1-1.2,1-2.1
			l0,0c0-0.8-0.5-1.5-1.4-2C187.1,5.6,185.9,5.4,184.5,5.4L184.5,5.4z"/>
		<path class="st2" d="M216.3,8.4l-3.8-10.5c0.9-0.5,2.1-1.2,3.4-1.9c1.4-0.7,3-1.4,4.7-2.1c1.7-0.7,3.6-1.3,5.5-1.7
			c2-0.5,4-0.7,6.1-0.7l0,0c2.7,0,5.5,0.3,8.4,0.9c2.9,0.6,5.6,1.6,7.9,3c2.4,1.4,4.4,3.3,5.9,5.7c1.5,2.4,2.3,5.4,2.3,9.1l0,0v17.7
			h5.4v11.6h-19.4l-2.2-4.1c-0.8,1.1-1.8,2.1-2.9,2.9c-1.1,0.8-2.1,1.3-3.3,1.8c-1.1,0.4-2.2,0.7-3.3,0.9c-1.1,0.2-2,0.3-2.8,0.3
			l0,0c-2.2,0-4.3-0.3-6.5-0.9c-2.1-0.6-4-1.5-5.7-2.7c-1.7-1.2-3.1-2.8-4.1-4.7c-1.1-1.9-1.6-4.2-1.6-6.8l0,0
			c0-2.5,0.5-4.8,1.5-6.9c1-2.1,2.4-3.8,4.1-5.3c1.7-1.4,3.7-2.6,6-3.3c2.3-0.8,4.7-1.2,7.3-1.2l0,0c1.3,0,2.5,0.1,3.6,0.4
			c1.1,0.3,2,0.6,2.7,1c0.8,0.4,1.4,0.7,1.8,1.1c0.5,0.4,0.7,0.6,0.9,0.7l0,0V9.3c0-2-0.8-3.4-2.4-4.1c-1.6-0.7-3.7-1-6.2-1l0,0
			c-2.7,0-5.2,0.4-7.5,1.3C220,6.5,218,7.4,216.3,8.4L216.3,8.4z M232.6,29.3L232.6,29.3c1.4,0,2.6-0.3,3.6-1c1-0.7,1.8-1.3,2.2-2
			l0,0v-3.5c-0.1-0.1-0.2-0.3-0.4-0.6c-0.2-0.3-0.5-0.6-0.9-0.9c-0.4-0.3-1-0.6-1.6-0.8c-0.6-0.2-1.4-0.4-2.4-0.4l0,0
			c-1.8,0-3.1,0.4-4,1.3c-0.8,0.9-1.3,2.1-1.3,3.5l0,0c0,1.3,0.5,2.3,1.4,3.1C230.1,29,231.2,29.3,232.6,29.3z"/>
	</g>
</g>
<g id="logo-512">
</g>
<g id="favicon">
</g>
</svg>
