<svg width="1920" height="948" viewBox="0 0 1920 948" fill="none" xmlns="http://www.w3.org/2000/svg">
<path opacity="0.07" d="M283.448 720.122L-113.74 780.948L-272.187 903.019L1803.86 818.79L1922.57 134.391L1376.2 0.112793L1232.66 134.391L975.676 192.27V298.767L850.658 416.839L656.186 448.635L626.089 551.117L459.398 639.093L283.448 720.122Z" fill="url(#paint0_linear)"/>
<path opacity="0.25" d="M381.552 804.868L-13.7396 820.947L-27.4462 892.785L1903.86 858.79L1919.84 144.261L1407.97 114.782L1238 212.6L1093.08 266.199L1012.68 393.496L929.932 467.468L759.697 502.756L717.042 607.844L565.42 626.845L381.552 804.868Z" fill="url(#paint1_linear)"/>
<path opacity="0.5" d="M380.932 818.491L-11.6799 876.11L-18.7507 892.785L1913.86 878.79L1921.28 165.024H1518.57H1411.05L1247.4 228.242L1124.98 318.949L1058.67 399.219L938.851 485.694L805.455 535.717L725.961 619.865L597.994 669.113L380.932 818.491Z" fill="url(#paint2_linear)"/>
<path d="M390.932 832.491L-6.63098 892.79L-6.63094 947.16L1923.86 947.162V179.024H1528.57H1421.04L1257.4 242.242L1138.56 337.175L1073.02 414.731L953.586 496.164L822.517 557.045L740.308 634.601L614.668 695.482L390.932 832.491Z" fill="url(#paint3_linear)"/>
<defs>
<linearGradient id="paint0_linear" x1="342.698" y1="903.018" x2="1765.78" y2="-94.885" gradientUnits="userSpaceOnUse">
<stop stop-color="#1B84FF"/>
<stop offset="1" stop-color="#51C0FF"/>
</linearGradient>
<linearGradient id="paint1_linear" x1="518.107" y1="892.785" x2="1756.14" y2="-1.12868" gradientUnits="userSpaceOnUse">
<stop stop-color="#1B84FF"/>
<stop offset="1" stop-color="#51C0FF"/>
</linearGradient>
<linearGradient id="paint2_linear" x1="524.769" y1="892.785" x2="1703.91" y2="-13.9886" gradientUnits="userSpaceOnUse">
<stop stop-color="#1B84FF"/>
<stop offset="1" stop-color="#51C0FF"/>
</linearGradient>
<linearGradient id="paint3_linear" x1="534.217" y1="947.162" x2="1758.12" y2="59.8207" gradientUnits="userSpaceOnUse">
<stop stop-color="#1B84FF"/>
<stop offset="1" stop-color="#51C0FF"/>
</linearGradient>
</defs>
</svg>