<svg width="31" height="32" viewBox="0 0 31 32" fill="none" xmlns="http://www.w3.org/2000/svg">
<g clip-path="url(#clip0)">
<path d="M26.4584 0.933594H4.38254C2.1329 0.933594 0.309814 2.76891 0.309814 5.0329V27.2576C0.309814 29.5216 2.1329 31.3576 4.38181 31.3576H15.27V31.3539H19.98V31.3576H26.4584C26.505 31.3576 26.5508 31.3554 26.5974 31.3539H26.621V31.3532C28.7945 31.2676 30.5311 29.4673 30.5311 27.2576V5.0329C30.5311 2.76891 28.7073 0.933594 26.4584 0.933594Z" fill="#44678D"/>
<path d="M8.13887 10.2026C8.86337 12.0029 9.78083 13.7006 10.9903 15.2248C11.1507 15.428 11.3526 15.6081 11.5655 15.7547C11.8767 15.9698 12.1702 15.8939 12.2966 15.5359C12.4304 15.16 12.5532 14.3987 12.5605 14.0035C12.5805 12.9719 12.5576 12.2962 12.5029 11.2661C12.4674 10.6067 12.2345 10.0269 11.2705 9.85204C10.9726 9.79771 10.9452 9.55137 11.1367 9.30502C11.5352 8.79298 12.0896 8.71111 12.6907 8.67911C13.6658 8.62627 14.6439 8.66943 15.6197 8.67911C16.0175 8.68283 16.4174 8.71483 16.8085 8.80116C17.3193 8.91355 17.5929 9.27376 17.6772 9.77613C17.7208 10.0351 17.7429 10.3008 17.737 10.5628C17.7119 11.6888 17.6579 12.8134 17.6454 13.9387C17.6402 14.3801 17.672 14.8333 17.7659 15.2627C17.8975 15.8618 18.3026 16.0129 18.7173 15.5798C19.2437 15.0298 19.708 14.4106 20.1434 13.7824C20.9352 12.6393 21.5259 11.3845 22.0345 10.0902C22.2977 9.42261 22.4995 9.27748 23.2129 9.27599C24.554 9.27302 25.8943 9.27153 27.2354 9.27599C27.4734 9.27748 27.7218 9.29981 27.9466 9.372C28.3111 9.48885 28.4552 9.78804 28.3702 10.1676C28.1713 11.057 27.6937 11.8131 27.1822 12.5395C26.3616 13.7058 25.5018 14.843 24.6619 15.9958C24.5547 16.1424 24.4601 16.2995 24.3729 16.458C24.0587 17.0296 24.0809 17.3496 24.5385 17.8252C25.2674 18.5821 26.0481 19.2906 26.7541 20.0683C27.2672 20.634 27.7425 21.248 28.1491 21.8947C28.6637 22.7119 28.3458 23.4822 27.3847 23.6192C26.78 23.7047 23.8273 23.6199 23.675 23.6192C22.881 23.6154 22.1853 23.3386 21.6249 22.7953C21.0017 22.1909 20.4354 21.5286 19.8366 20.8974C19.6562 20.7077 19.464 20.5253 19.2563 20.366C18.7669 19.9902 18.2863 20.0736 18.0579 20.6526C17.8627 21.1497 17.6934 22.4551 17.686 22.5668C17.6446 23.1495 17.2765 23.5217 16.6274 23.5574C14.7548 23.6601 12.9398 23.4495 11.2498 22.5378C9.81705 21.7652 8.67264 20.6734 7.68199 19.3993C6.10731 17.3764 4.86383 15.1526 3.72829 12.8633C3.67062 12.7464 2.52029 10.283 2.48924 10.1669C2.38648 9.77762 2.48259 9.40475 2.80936 9.27674C3.0134 9.1971 6.80446 9.27674 6.86804 9.27972C7.4713 9.31395 7.88382 9.57072 8.13887 10.2026Z" fill="white"/>
</g>
<defs>
<clipPath id="clip0">
<rect width="30.2213" height="30.4241" fill="white" transform="translate(0.309814 0.933594)"/>
</clipPath>
</defs>
</svg>
