<?xml version="1.0" encoding="utf-8"?>
<!-- Generator: Adobe Illustrator 24.2.0, SVG Export Plug-In . SVG Version: 6.00 Build 0)  -->
<svg version="1.1" id="Слой_2" xmlns="http://www.w3.org/2000/svg" xmlns:xlink="http://www.w3.org/1999/xlink" x="0px" y="0px"
	 viewBox="0 0 512 512" style="enable-background:new 0 0 512 512;" xml:space="preserve">
<style type="text/css">
	.st0{fill:#4D76A1;}
	.st1{fill-rule:evenodd;clip-rule:evenodd;fill:#FFFFFF;}
</style>
<g>
	<path class="st0" d="M33.4,35.5C-6.7,77.2,1.5,121.5,1.5,255.9c0,111.7-19.5,223.6,82.5,249.9c31.8,8.2,313.9,8.2,345.7,0
		c42.5-11,77-45.4,81.7-105.4c0.7-8.4,0.7-280.4,0-289c-5-64-44.4-100.8-96.3-108.3c-11.9-1.7-14.3-2.2-75.3-2.3
		C123.6,0.9,76.1-8.7,33.4,35.5L33.4,35.5z"/>
	<path class="st1" d="M252.4,351.1h20.1c0,0,6.1-0.7,9.2-4c2.9-3.1,2.8-8.8,2.8-8.8s-0.4-27,12.1-30.9c12.3-3.9,28.2,26.1,45,37.6
		c12.7,8.7,22.3,6.8,22.3,6.8l44.9-0.6c0,0,23.5-1.4,12.3-19.9c-0.9-1.5-6.5-13.7-33.4-38.6c-28.1-26.1-24.4-21.9,9.5-67.1
		c20.6-27.5,28.9-44.3,26.3-51.5c-2.5-6.9-17.6-5-17.6-5l-50.5,0.3c0,0-3.7-0.5-6.5,1.1c-2.7,1.6-4.5,5.4-4.5,5.4s-8,21.3-18.7,39.4
		c-22.5,38.2-31.5,40.2-35.2,37.9c-8.6-5.5-6.4-22.2-6.4-34.1c0-37,5.6-52.5-10.9-56.5c-5.5-1.3-9.5-2.2-23.6-2.3
		c-18-0.2-33.3,0.1-41.9,4.3c-5.7,2.8-10.2,9.1-7.5,9.4c3.3,0.4,10.9,2,14.9,7.5c5.2,7,5,22.9,5,22.9s3,43.6-6.9,49
		c-6.8,3.7-16.2-3.9-36.2-38.5c-10.3-17.8-18-37.4-18-37.4s-1.5-3.7-4.2-5.6c-3.2-2.4-7.8-3.1-7.8-3.1l-48,0.3c0,0-7.2,0.2-9.9,3.3
		c-2.4,2.8-0.2,8.6-0.2,8.6s37.6,88,80.2,132.3C208.1,353.7,252.4,351.1,252.4,351.1L252.4,351.1z"/>
</g>
</svg>
