<svg width="89" height="90" viewBox="0 0 89 90" fill="none" xmlns="http://www.w3.org/2000/svg">
<path d="M88.9049 6.12635C88.3969 7.44251 87.7041 8.62013 86.4111 9.1743C86.5496 10.121 86.8036 10.9754 86.7805 11.8528C86.7574 13.3075 85.88 14.3466 84.864 15.2933C84.3329 15.7782 83.5709 16.2631 83.4324 16.8635C83.2938 17.4407 83.848 18.1796 84.102 18.8262C89.8978 33.0269 81.562 48.7516 66.5532 51.9381C65.7681 52.0997 64.9599 52.169 64.1748 52.3537C63.9208 52.423 63.5745 52.677 63.4821 52.9079C62.189 56.3253 58.8178 57.8262 55.4697 56.3946C50.967 54.4781 46.4874 52.4923 41.9847 50.5527C41.7308 50.4372 41.4537 50.3449 41.0149 50.1601C41.2228 50.5065 41.3382 50.7374 41.4768 50.9221C42.7236 52.7001 43.9013 54.5243 45.2405 56.2099C46.7183 58.0802 47.5034 60.1584 47.8729 62.4905C48.3808 65.8156 49.0505 69.1175 49.6277 72.4426C49.7201 73.0198 49.9741 73.32 50.5514 73.5047C54.7077 74.9825 58.8409 76.4834 62.9741 78.0074C65.3755 78.9079 66.7841 81.1015 66.761 83.6646C66.7379 86.0198 65.1908 88.1903 62.951 89.0447C62.6047 89.1832 62.2583 89.2987 61.9119 89.4141C61.2192 89.4141 60.5265 89.4141 59.8338 89.4141C59.8107 89.3911 59.8107 89.368 59.7876 89.3449C54.1304 87.3129 48.4732 85.2578 42.816 83.2259C40.5531 82.4177 39.2139 80.8244 38.7521 78.4923C38.3826 76.5065 38.0363 74.5207 37.6668 72.5349C37.3897 71.0109 37.1126 69.51 36.8125 67.9399C32.6331 68.4941 28.546 69.0713 24.459 69.6024C23.9048 69.6717 23.6277 69.8795 23.4199 70.4106C21.5496 75.3751 19.61 80.2934 17.7396 85.2578C16.9314 87.3822 15.5229 88.7907 13.26 89.2987C13.1908 89.3218 13.1215 89.3911 13.0522 89.4372C12.4057 89.4372 11.7822 89.4372 11.1357 89.4372C10.7201 89.2987 10.3044 89.1832 9.9119 89.0216C6.97939 87.8902 5.36305 84.6113 6.4714 81.6557C8.94209 75.0518 11.4821 68.471 14.0682 61.8901C14.8764 59.812 16.5851 58.7267 18.7787 58.4266C22.8426 57.8724 26.8835 57.3413 31.086 56.7871C30.8782 56.4639 30.7165 56.2099 30.5549 55.9559C26.768 50.5758 22.9581 45.2187 19.1712 39.8386C16.8853 36.5829 17.9705 32.3342 21.4803 30.8102C23.189 30.0713 24.8977 30.2098 26.5833 30.9487C30.324 32.5882 34.0878 34.2276 37.8284 35.844C37.9901 35.9132 38.1517 35.9825 38.3826 36.0749C38.0824 34.8049 37.7592 33.6042 37.5283 32.3804C34.9652 19.1956 44.3631 5.96471 57.6633 4.00201C62.7201 3.26311 67.546 3.93274 72.1411 6.14944C72.5798 6.35725 72.8569 6.33416 73.1802 5.96471C73.5265 5.54908 73.9652 5.20272 74.3347 4.78709C75.9972 2.91675 77.9137 2.24712 80.3844 3.37856C80.9848 1.94695 82.1624 1.23114 83.5017 0.723145C84.0789 0.723145 84.6562 0.723145 85.2335 0.723145C87.1269 1.25423 88.3507 2.45494 88.8818 4.37146C88.9049 4.97182 88.9049 5.54908 88.9049 6.12635ZM63.5283 49.3289C63.6668 49.352 63.7361 49.375 63.7823 49.375C75.7894 48.2205 84.6331 36.883 82.8089 25.0145C81.0079 13.2613 70.34 5.2489 58.6331 6.81906C44.4093 8.75867 36.0274 24.2294 42.2157 37.1832C42.4004 37.5757 42.816 37.9452 43.2316 38.1299C48.6579 40.5313 54.1073 42.9097 59.5567 45.2418C61.4501 46.0731 62.8817 47.2969 63.5283 49.3289ZM23.9048 33.2116C22.1037 33.2809 20.7414 34.7587 20.9954 36.5136C21.0878 37.1139 21.3648 37.7374 21.7112 38.2223C25.5442 43.6948 29.4004 49.1672 33.2796 54.6397C34.9652 57.0411 33.9261 59.3964 31.0398 59.7889C27.2068 60.2969 23.3968 60.8511 19.5407 61.3129C17.9705 61.4976 17.0469 62.2596 16.4927 63.7143C14.9457 67.8475 13.3293 71.9346 11.7591 76.0678C10.951 78.1921 10.0966 80.3165 9.31154 82.4408C8.80355 83.8262 9.26536 85.2578 10.4661 85.9967C11.6206 86.7356 13.1446 86.5971 14.1144 85.5811C14.4838 85.1886 14.7609 84.6806 14.9457 84.1957C16.9084 79.1157 18.8711 74.0358 20.8107 68.9559C21.2725 67.7321 22.0576 66.947 23.3506 66.7623C27.6686 66.1619 31.9865 65.5846 36.3045 65.0305C38.1055 64.7996 39.3986 65.7694 39.745 67.5473C40.3915 71.0109 41.0149 74.4514 41.6384 77.915C41.8693 79.1619 42.5389 79.9932 43.7396 80.4319C49.0274 82.3484 54.292 84.288 59.5798 86.1815C60.1109 86.3662 60.7112 86.4585 61.2654 86.3893C62.6277 86.2046 63.6437 85.0962 63.7823 83.8031C63.9208 82.4639 63.1357 81.2401 61.7503 80.7321C57.5709 79.185 53.3684 77.6379 49.1659 76.1601C47.8036 75.6752 47.0416 74.8209 46.7876 73.3893C46.1872 69.8564 45.4945 66.3697 44.9173 62.8369C44.6171 61.0589 44.0167 59.5118 42.9315 58.0571C40.6455 54.9861 38.4981 51.7996 36.2583 48.6823C35.8888 48.1512 35.2885 47.7125 34.7112 47.4123C33.4181 46.7658 32.0789 46.2578 30.7627 45.6575C29.9315 45.2649 29.6313 44.5029 29.9315 43.7409C30.2316 43.002 31.0398 42.6557 31.8942 42.9559C32.1712 43.0482 32.4252 43.1868 32.6792 43.3022C40.6224 46.7658 48.5656 50.2294 56.5318 53.693C58.2174 54.4319 59.9261 53.7854 60.5958 52.2152C61.2654 50.6681 60.5727 49.0056 58.9333 48.2898C47.7343 43.4177 36.5354 38.5456 25.3133 33.6965C24.8515 33.4425 24.3666 33.3502 23.9048 33.2116ZM81.8622 14.0926C82.3009 13.6308 82.8782 13.0997 83.3862 12.5224C84.0097 11.8297 84.0558 11.0908 83.4324 10.4443C82.0469 9.01267 80.6384 7.60414 79.2299 6.2418C78.6064 5.64144 77.8675 5.64144 77.221 6.21871C76.5976 6.77288 76.0434 7.37324 75.5816 7.81196C77.6828 9.9132 79.7379 11.9683 81.8622 14.0926ZM85.9493 5.15654C85.9262 4.34837 85.2335 3.67874 84.4253 3.70183C83.6171 3.72492 82.9706 4.41764 83.0168 5.2489C83.0629 6.03398 83.6864 6.63434 84.4715 6.63434C85.3027 6.63434 85.9493 5.96471 85.9493 5.15654Z" fill="#FF0000"/>
<path d="M0.237202 24.6449C0.306474 24.4371 0.375746 24.2062 0.421927 23.9983C1.39173 19.5649 5.6404 16.517 10.0969 17.0481C14.5996 17.5792 17.9477 21.3891 17.9477 25.9149C17.9477 30.3713 14.461 34.2506 10.0738 34.6662C5.43259 35.128 1.32246 32.1262 0.398836 27.6236C0.352655 27.4388 0.283383 27.2541 0.214111 27.0463C0.237202 26.2612 0.237202 25.453 0.237202 24.6449ZM14.9921 25.8225C14.9921 22.6129 12.3829 19.9575 9.17326 19.9575C5.82513 19.9575 3.16971 22.6129 3.1928 25.938C3.21589 29.1245 5.87131 31.7568 9.0809 31.7568C12.3829 31.7568 14.9921 29.1475 14.9921 25.8225Z" fill="#FF0000"/>
<path d="M69.7165 22.2206C67.6383 24.2988 65.6295 26.3307 63.5513 28.3858C64.6366 30.21 65.006 32.2188 64.4056 34.3663C63.1357 38.8458 58.1019 41.0395 53.9456 38.892C53.5069 38.6611 53.1836 38.5688 52.6987 38.8689C52.1445 39.2153 51.5211 39.0998 51.0362 38.6149C50.5513 38.13 50.5051 37.5528 50.7591 36.9524C50.8284 36.7677 50.9669 36.6061 51.1055 36.3982C50.3435 35.0821 49.8817 33.6505 49.9509 32.0803C50.0433 30.2792 50.6667 28.7091 51.8905 27.3698C52.5833 26.6078 53.4376 26.5155 54.1072 27.0927C54.7769 27.6931 54.8 28.5013 54.1072 29.3094C52.8603 30.7641 52.5833 32.3574 53.3453 34.2739C54.4305 33.1886 55.4234 32.1727 56.4394 31.1567C57.4554 30.1407 58.4945 29.1478 59.5335 28.1318C58.379 26.2153 57.9865 24.2526 58.5406 22.1513C59.7413 17.5563 64.8213 15.2703 69.0469 17.4178C69.4856 17.6487 69.7858 17.7641 70.2938 17.464C70.8479 17.1176 71.4714 17.233 71.9563 17.741C72.4412 18.2259 72.5566 18.8725 72.2103 19.4036C71.887 19.9116 72.0486 20.2117 72.2565 20.6505C73.6419 23.3751 73.1801 26.7233 71.1481 28.9631C70.4092 29.7712 69.5779 29.9098 68.8852 29.3094C68.1925 28.7091 68.1925 27.9009 68.9314 27.0235C70.109 25.5688 70.363 23.9986 69.7165 22.2206ZM61.5886 25.638C63.5051 23.7215 65.3985 21.8281 67.2689 19.9577C65.8604 19.265 63.9669 19.5652 62.6508 20.7428C61.2884 21.9897 60.8959 23.9293 61.5886 25.638ZM55.6081 36.3521C57.3399 37.091 59.395 36.6753 60.6188 35.2899C61.7964 33.9506 62.0735 31.9879 61.2884 30.6487C59.395 32.519 57.5247 34.4124 55.6081 36.3521Z" fill="#FF0000"/>
</svg>
