<svg width="93" height="89" viewBox="0 0 93 89" fill="none" xmlns="http://www.w3.org/2000/svg">
<path d="M63.614 75.6769C63.614 76.8197 62.6876 77.746 61.5448 77.746C60.4021 77.746 59.4757 76.8197 59.4757 75.6769C59.4757 74.5342 60.4021 73.6078 61.5448 73.6078C62.6876 73.6078 63.614 74.5342 63.614 75.6769Z" fill="#FF0000" stroke="#FFCACA" stroke-width="1.2"/>
<path d="M33.4163 75.6769C33.4163 76.8197 32.49 77.746 31.3472 77.746C30.2045 77.746 29.2781 76.8197 29.2781 75.6769C29.2781 74.5342 30.2045 73.6078 31.3472 73.6078C32.49 73.6078 33.4163 74.5342 33.4163 75.6769Z" fill="#FF0000" stroke="#FFCACA" stroke-width="1.2"/>
<path d="M24.1935 56.3502L24.0177 56.1745H23.7692H3.59001C2.44732 56.1745 1.5209 55.2481 1.5209 54.1054V3.39226C1.5209 2.24957 2.44732 1.32314 3.59001 1.32314H89.3574C90.5001 1.32314 91.4265 2.24957 91.4265 3.39226V54.1054C91.4265 55.2481 90.5001 56.1745 89.3574 56.1745H69.1231H68.8746L68.6988 56.3502L63.0029 62.0461L62.1528 62.8962L63.3432 63.0645C73.841 64.5479 77.9747 77.4617 70.4385 84.8066C65.4735 89.6457 57.3875 89.5444 52.42 84.5768L46.8704 79.0272L46.4461 78.6029L46.0219 79.0272L40.4723 84.5768C35.4991 89.55 27.4133 89.6402 22.4538 84.8066C14.7688 77.3166 19.2607 64.5182 29.5494 63.0648L30.7399 62.8966L29.8897 62.0465L24.1935 56.3502ZM86.6883 17.3378H87.2883V16.7378V6.06137V5.46137H86.6883H75.9516H75.3516V6.06137C75.3516 12.2797 80.4096 17.3378 86.628 17.3378H86.6883ZM6.25912 5.46137H5.65912V6.06137V16.7378V17.3378H6.25912C12.4775 17.3378 17.5356 12.2797 17.5356 6.06137V5.46137H16.9356H6.25912ZM6.25912 40.1598H5.65912V40.7598V51.4363V52.0363H6.25912H16.9356H17.5356V51.4363C17.5356 45.2179 12.4775 40.1598 6.25912 40.1598ZM5.65912 35.4216V36.0216H6.25912C14.7582 36.0216 21.6738 42.9371 21.6738 51.4363V52.0363H22.2738H51.813H52.0615L52.2373 51.8605L71.4058 32.692C72.2138 31.884 73.524 31.8841 74.3319 32.692L74.7561 32.2678L74.3319 32.6921C75.8519 34.2119 76.938 36.046 77.5341 38.0465L77.7602 38.8054L78.4296 38.3825C80.4631 37.0977 82.4111 36.5241 83.9078 36.2633C84.6562 36.1328 85.2922 36.0806 85.7707 36.0569C86.0055 36.0453 86.2023 36.0406 86.3606 36.0367L86.3707 36.0365L86.3991 36.0358C86.5301 36.0327 86.6752 36.0293 86.7715 36.0158L87.2883 35.9434V35.4216V22.076V21.476H86.6883H86.628C78.1289 21.476 71.2133 14.5605 71.2133 6.06137V5.46137H70.6133H22.2738H21.6738V6.06137C21.6738 14.5605 14.7582 21.476 6.25912 21.476H5.65912V22.076V35.4216ZM73.0893 37.9914L72.7232 37.2268L72.1238 37.8262L49.7964 60.1539L49.3721 60.5781L49.7964 61.0024L53.571 64.7771L53.9953 65.2013L54.4195 64.7771L71.4058 47.7908C74.1068 45.0898 74.5882 41.1223 73.0893 37.9914ZM46.8991 57.1987L47.9233 56.1745H46.4748H31.3185H29.87L30.8942 57.1987L38.4724 64.7769L38.8966 65.2011L39.3209 64.7769L46.8991 57.1987ZM46.8702 63.9285L46.446 63.5043L46.0217 63.9285L40.3596 69.5906C39.5545 70.3957 38.2425 70.3996 37.4335 69.5906L37.0092 70.0149L37.4335 69.5906C35.755 67.9123 33.5499 67.0733 31.3472 67.0733C23.7069 67.0733 19.7753 76.4175 25.3419 81.8432L25.7607 81.4136L25.3419 81.8433C28.7051 85.1211 34.1776 85.019 37.546 81.6506C40.089 79.1075 42.4965 76.6997 44.5372 74.6588C48.1069 71.0886 50.5542 68.641 50.6416 68.555L51.0724 68.1308L50.6449 67.7032L46.8702 63.9285ZM49.7964 75.2525L49.3721 75.6768L49.7964 76.101L55.346 81.6506C58.7144 85.0191 64.1864 85.1209 67.55 81.8431L67.1312 81.4134L67.55 81.8431C70.9985 78.482 71.019 72.9784 67.6311 69.5904C64.2746 66.2341 58.8147 66.2343 55.4584 69.5904L55.8827 70.0147L55.4584 69.5904L49.7964 75.2525ZM73.9827 51.0742L73.2546 52.0363H74.4611H86.6883H87.2883V51.4363V40.7598V40.1598H86.6883H86.628C82.4717 40.1598 79.9142 42.3102 78.6916 43.3382C78.4356 43.5534 78.2381 43.7194 78.0968 43.8062L77.8729 43.9436L77.8221 44.2013C77.3958 46.3602 76.4911 48.0092 75.6733 49.1443C75.2645 49.7118 74.8779 50.15 74.5844 50.4586C74.4377 50.613 74.3138 50.7353 74.2199 50.8272C74.1745 50.8716 74.1308 50.9141 74.098 50.9468C74.0757 50.9691 74.0227 51.0213 73.9827 51.0742Z" fill="#FF0000" stroke="#FFCACA" stroke-width="1.2"/>
<path d="M46.3848 12.0084C55.6174 12.0084 63.1296 19.5206 63.1296 28.7532C63.1296 37.9858 55.6174 45.498 46.3848 45.498C37.1522 45.498 29.64 37.9858 29.64 28.7532C29.64 19.5206 37.1522 12.0084 46.3848 12.0084ZM46.3848 16.1467C39.433 16.1467 33.7783 21.8014 33.7783 28.7532C33.7783 35.7051 39.433 41.3598 46.3848 41.3598C53.3366 41.3598 58.9914 35.7051 58.9914 28.7532C58.9914 21.8014 53.3366 16.1467 46.3848 16.1467Z" fill="#FF0000" stroke="#FFCACA" stroke-width="1.2"/>
</svg>
