<svg width="102" height="102" viewBox="0 0 102 102" fill="none" xmlns="http://www.w3.org/2000/svg">
<path d="M62.3868 95.0641H72.1736V85.2773H62.3868V95.0641Z" fill="#0082FF"/>
<path d="M62.3868 82.0231H72.1736V72.2363H62.3868V82.0231Z" fill="#0082FF"/>
<path d="M85.3055 46.3839C81.937 46.3839 78.5458 44.9045 75.974 42.3554C73.5614 39.9429 72.1276 36.8475 71.9682 33.6384C71.8089 30.6341 72.8104 27.8802 74.7677 25.9228C77.0892 23.6013 79.9114 23.1006 81.8688 23.1006C85.2372 23.1006 88.6284 24.58 91.2003 27.1291C93.6128 29.5416 95.0467 32.637 95.206 35.8461C95.3653 38.8504 94.3639 41.6043 92.4066 43.5617C90.0623 45.9059 87.2628 46.3839 85.3055 46.3839ZM81.8688 26.8332C80.617 26.8332 78.819 27.1291 77.3851 28.5629C76.1788 29.7692 75.5643 31.5217 75.6553 33.4563C75.7691 35.7323 76.8161 37.9628 78.5914 39.738C80.4577 41.6043 82.893 42.674 85.2828 42.674C86.5345 42.674 88.3326 42.3782 89.7664 40.9443C90.9727 39.738 91.5872 37.9855 91.4962 36.0509C91.3824 33.7749 90.3354 31.5445 88.5602 29.7692C86.6939 27.9029 84.2586 26.8332 81.8688 26.8332Z" fill="#0082FF"/>
<path d="M81.8689 23.3507C85.1691 23.3507 88.5147 24.7846 91.0411 27.3109C93.4309 29.7007 94.8192 32.7278 95.0013 35.8686C95.1606 38.8046 94.1819 41.4903 92.2701 43.4021C89.9941 45.6781 87.2402 46.1561 85.3284 46.1561C82.0282 46.1561 78.6825 44.7222 76.1562 42.1958C73.7664 39.8061 72.378 36.779 72.2187 33.6381C72.0594 30.7021 73.0381 28.0165 74.9499 26.1046C77.2031 23.8287 79.9571 23.3507 81.8689 23.3507ZM85.3056 42.9014C86.6029 42.9014 88.4465 42.5828 89.9486 41.1034C91.2004 39.8516 91.8377 38.0536 91.7466 36.0279C91.6328 33.7064 90.5631 31.4077 88.7423 29.6097C86.8305 27.6978 84.3269 26.6054 81.8916 26.6054C80.5943 26.6054 78.7508 26.924 77.2486 28.4034C75.9968 29.6552 75.3596 31.4532 75.4734 33.4788C75.5872 35.8003 76.6569 38.0991 78.4777 39.8971C80.344 41.8089 82.8475 42.9014 85.3056 42.9014ZM81.8689 22.8955C79.866 22.8955 76.9983 23.3962 74.6085 25.786C72.6056 27.7889 71.5814 30.5883 71.7408 33.6837C71.9001 36.9383 73.3567 40.0792 75.8148 42.5372C78.4094 45.1319 81.8689 46.634 85.3056 46.634C87.3085 46.634 90.1762 46.1333 92.566 43.7435C94.5689 41.7406 95.5931 38.9412 95.4337 35.8458C95.2517 32.5912 93.8178 29.4503 91.3597 26.9923C88.7423 24.3749 85.2829 22.8955 81.8689 22.8955ZM85.3056 42.4462C82.9841 42.4462 80.5943 41.3993 78.7735 39.5785C77.0438 37.8487 76.0196 35.6638 75.9058 33.4561C75.8148 31.567 76.3838 29.9055 77.5673 28.7448C78.9329 27.3792 80.6626 27.0833 81.8916 27.0833C84.2131 27.0833 86.6029 28.1303 88.4237 29.9511C90.1535 31.6808 91.1777 33.8657 91.2915 36.0734C91.3825 37.9625 90.8135 39.624 89.63 40.7847C88.2416 42.1503 86.5119 42.4462 85.3056 42.4462Z" fill="#0082FF"/>
<path d="M101.487 35.5267C101.236 30.7701 99.1652 26.2183 95.6376 22.6906C92.11 19.163 87.5582 17.0919 82.8016 16.8416C78.8415 16.6368 75.1546 17.7292 72.1731 19.9141V8.67114C72.1731 4.18763 68.5089 0.523438 64.0254 0.523438H8.60742C4.12391 0.523438 0.459717 4.18763 0.459717 8.67114V93.4254C0.459717 97.909 4.12391 101.573 8.60742 101.573H70.5345C75.018 101.573 78.6822 97.909 78.6822 93.4254V73.8755C78.6822 71.3265 77.4532 68.8913 75.4277 67.3665L72.1731 64.9312V55.0083L76.6339 50.5476C83.5754 54.1208 91.7231 53.1649 96.8438 48.0441C100.098 44.7668 101.737 40.3288 101.487 35.5267ZM3.71425 93.4254V8.67114C3.71425 5.98558 5.8991 3.77797 8.60742 3.77797H13.5006V98.3186H8.60742C5.92186 98.3186 3.71425 96.111 3.71425 93.4254ZM73.4704 69.961C74.6994 70.8713 75.4277 72.3507 75.4277 73.8755V93.4254C75.4277 96.111 73.2428 98.3186 70.5345 98.3186H23.2869V3.77797H64.0254C66.711 3.77797 68.9186 5.96282 68.9186 8.67114V23.1231C65.0723 28.2438 64.5944 35.4584 67.8034 41.6944L49.3459 60.1519L42.8369 53.6428L35.645 60.8346L42.1541 67.3437L39.5823 69.9382L33.0733 63.4292L25.8815 70.621L33.1416 77.8811C33.5285 82.0232 36.9878 85.2777 41.221 85.2777H41.9038L68.9414 58.2401V66.5244L73.4704 69.961ZM44.4755 65.045L40.2423 60.8346L42.8369 58.2401L47.0473 62.4505L44.4755 65.045ZM34.6892 74.8314L30.4788 70.621L33.0733 68.0265L37.2837 72.2369L34.6892 74.8314ZM94.5452 45.7227C90.1982 50.0697 83.0747 50.6386 77.1801 47.111L76.0877 46.451L40.561 81.9777C38.3761 81.6818 36.6237 79.9521 36.3506 77.7673L71.8773 42.2406L71.2173 41.1482C67.6896 35.2763 68.2814 28.13 72.6056 23.7831C75.1773 21.2113 78.7277 19.8913 82.6195 20.0961C86.5568 20.301 90.3575 22.0306 93.3162 24.9893C96.2749 27.948 98.0045 31.7259 98.2094 35.686C98.437 39.5778 97.1169 43.1282 94.5452 45.7227Z" fill="#0082FF"/>
</svg>
