<svg width="92" height="110" viewBox="0 0 92 110" fill="none" xmlns="http://www.w3.org/2000/svg">
<path d="M23.2161 98.8867H10.9475C10.4827 98.8867 10.0369 99.0714 9.70817 99.4001C9.37948 99.7287 9.19482 100.175 9.19482 100.639C9.19482 101.104 9.37948 101.55 9.70817 101.879C10.0369 102.207 10.4827 102.392 10.9475 102.392H23.2161C23.6809 102.392 24.1267 102.207 24.4554 101.879C24.7841 101.55 24.9688 101.104 24.9688 100.639C24.9688 100.175 24.7841 99.7287 24.4554 99.4001C24.1267 99.0714 23.6809 98.8867 23.2161 98.8867Z" fill="#2980B9"/>
<path d="M30.2268 98.8867H28.4741C28.0093 98.8867 27.5635 99.0714 27.2348 99.4001C26.9061 99.7287 26.7214 100.175 26.7214 100.639C26.7214 101.104 26.9061 101.55 27.2348 101.879C27.5635 102.207 28.0093 102.392 28.4741 102.392H30.2268C30.6916 102.392 31.1374 102.207 31.4661 101.879C31.7948 101.55 31.9794 101.104 31.9794 100.639C31.9794 100.175 31.7948 99.7287 31.4661 99.4001C31.1374 99.0714 30.6916 98.8867 30.2268 98.8867Z" fill="#2980B9"/>
<path d="M67.9091 27.0282C66.4391 27.0288 64.9723 27.1652 63.5274 27.4357V9.50158C63.5251 7.17812 62.6011 4.95049 60.9581 3.30755C59.3152 1.66462 57.0876 0.740601 54.7641 0.738281H9.19494C6.87148 0.740601 4.64385 1.66462 3.00091 3.30755C1.35798 4.95049 0.433961 7.17812 0.431641 9.50158V100.64C0.433961 102.963 1.35798 105.191 3.00091 106.834C4.64385 108.477 6.87148 109.401 9.19494 109.403H54.7641C57.0876 109.401 59.3152 108.477 60.9581 106.834C62.6011 105.191 63.5251 102.963 63.5274 100.64V74.35C63.5274 74.35 68.5466 74.3434 68.8533 74.3281C75.0415 74.081 80.8861 71.4173 85.1322 66.909C89.3784 62.4007 91.6876 56.4072 91.5639 50.2153C91.4403 44.0235 88.8938 38.1269 84.4711 33.7916C80.0484 29.4564 74.1022 27.0281 67.9091 27.0282ZM43.8626 4.2436L42.811 9.50158H21.1481L20.0965 4.2436H43.8626ZM60.0221 100.64C60.0202 102.034 59.4657 103.37 58.48 104.356C57.4944 105.341 56.158 105.896 54.7641 105.898H9.19494C7.80101 105.896 6.4647 105.341 5.47904 104.356C4.49338 103.37 3.93882 102.034 3.93696 100.64V9.50158C3.93882 8.10765 4.49338 6.77134 5.47904 5.78568C6.4647 4.80002 7.80101 4.24546 9.19494 4.2436H16.5211L17.9933 11.5982C18.0724 11.9955 18.2868 12.353 18.6 12.6099C18.9132 12.8668 19.3058 13.0071 19.7109 13.0069H44.2481C44.6532 13.0071 45.0458 12.8668 45.359 12.6099C45.6722 12.353 45.8867 11.9955 45.9658 11.5982L47.438 4.2436H54.7641C56.158 4.24546 57.4944 4.80002 58.48 5.78568C59.4657 6.77134 60.0202 8.10765 60.0221 9.50158V28.3821C55.4124 30.0182 51.4219 33.0405 48.5978 37.0342C45.7736 41.028 44.2543 45.7977 44.2481 50.6891C44.2247 56.3253 46.2356 61.7807 49.9114 66.0534L39.9585 71.0287C39.6048 71.205 39.321 71.4957 39.1533 71.8536C38.9856 72.2114 38.9437 72.6155 39.0346 73.0002C39.1254 73.3848 39.3436 73.7275 39.6537 73.9725C39.9638 74.2175 40.3476 74.3506 40.7428 74.35H60.0221V100.64ZM82.4255 64.6731C78.8234 68.4256 73.9044 70.6321 68.7065 70.8272C68.4414 70.8381 48.1675 70.8447 48.1675 70.8447L53.5942 68.1324C53.8458 68.0062 54.0633 67.8213 54.2284 67.5933C54.3936 67.3653 54.5014 67.101 54.5429 66.8226C54.5843 66.5442 54.5582 66.2598 54.4667 65.9937C54.3752 65.7275 54.2209 65.4872 54.017 65.2931C51.1249 62.5418 49.1149 58.9937 48.2418 55.0986C47.3687 51.2035 47.6718 47.1368 49.1127 43.4142C50.5537 39.6916 53.0675 36.4807 56.3356 34.1885C59.6036 31.8964 63.4787 30.6263 67.4695 30.5392C71.4603 30.4521 75.3871 31.5519 78.7521 33.6993C82.117 35.8467 84.7686 38.9449 86.3706 42.6011C87.9725 46.2573 88.4528 50.3068 87.7505 54.2363C87.0481 58.1658 85.1948 61.7982 82.4255 64.6731Z" fill="#2980B9"/>
<path d="M68.7853 44.5547C67.7454 44.5547 66.7288 44.8631 65.8642 45.4408C64.9995 46.0186 64.3256 46.8398 63.9276 47.8005C63.5296 48.7613 63.4255 49.8185 63.6284 50.8385C63.8313 51.8584 64.332 52.7953 65.0674 53.5306C65.8027 54.266 66.7396 54.7667 67.7595 54.9696C68.7795 55.1725 69.8367 55.0684 70.7975 54.6704C71.7582 54.2724 72.5794 53.5985 73.1572 52.7338C73.7349 51.8692 74.0433 50.8526 74.0433 49.8127C74.0417 48.4187 73.4872 47.0822 72.5015 46.0965C71.5158 45.1108 70.1793 44.5563 68.7853 44.5547ZM68.7853 51.5653C68.4387 51.5653 68.0998 51.4625 67.8116 51.27C67.5234 51.0774 67.2987 50.8036 67.1661 50.4834C67.0334 50.1631 66.9987 49.8107 67.0663 49.4707C67.134 49.1308 67.3009 48.8185 67.546 48.5733C67.7911 48.3282 68.1034 48.1613 68.4434 48.0937C68.7834 48.0261 69.1358 48.0608 69.456 48.1934C69.7763 48.3261 70.05 48.5507 70.2426 48.8389C70.4352 49.1272 70.538 49.466 70.538 49.8127C70.5375 50.2773 70.3526 50.7228 70.0241 51.0514C69.6955 51.38 69.25 51.5648 68.7853 51.5653Z" fill="#2980B9"/>
<path d="M56.5165 44.5547C55.4766 44.5547 54.46 44.8631 53.5954 45.4408C52.7307 46.0186 52.0568 46.8398 51.6588 47.8005C51.2608 48.7613 51.1567 49.8185 51.3596 50.8385C51.5625 51.8584 52.0632 52.7953 52.7986 53.5306C53.5339 54.266 54.4708 54.7667 55.4907 54.9696C56.5107 55.1725 57.5679 55.0684 58.5287 54.6704C59.4894 54.2724 60.3106 53.5985 60.8884 52.7338C61.4661 51.8692 61.7745 50.8526 61.7745 49.8127C61.7729 48.4187 61.2184 47.0822 60.2327 46.0965C59.247 45.1108 57.9105 44.5563 56.5165 44.5547ZM56.5165 51.5653C56.1699 51.5653 55.831 51.4625 55.5428 51.27C55.2546 51.0774 55.0299 50.8036 54.8973 50.4834C54.7646 50.1631 54.7299 49.8107 54.7975 49.4707C54.8652 49.1308 55.0321 48.8185 55.2772 48.5733C55.5223 48.3282 55.8346 48.1613 56.1746 48.0937C56.5146 48.0261 56.867 48.0608 57.1872 48.1934C57.5075 48.3261 57.7812 48.5507 57.9738 48.8389C58.1664 49.1272 58.2692 49.466 58.2692 49.8127C58.2687 50.2773 58.0838 50.7228 57.7553 51.0514C57.4267 51.38 56.9812 51.5648 56.5165 51.5653Z" fill="#2980B9"/>
<path d="M81.0539 44.5547C80.014 44.5547 78.9974 44.8631 78.1327 45.4408C77.268 46.0186 76.5941 46.8398 76.1961 47.8005C75.7982 48.7613 75.6941 49.8185 75.8969 50.8385C76.0998 51.8584 76.6006 52.7953 77.3359 53.5306C78.0713 54.266 79.0082 54.7667 80.0281 54.9696C81.048 55.1725 82.1052 55.0684 83.066 54.6704C84.0268 54.2724 84.848 53.5985 85.4257 52.7338C86.0035 51.8692 86.3119 50.8526 86.3119 49.8127C86.3102 48.4187 85.7558 47.0822 84.77 46.0965C83.7843 45.1108 82.4479 44.5563 81.0539 44.5547ZM81.0539 51.5653C80.7072 51.5653 80.3684 51.4625 80.0802 51.27C79.7919 51.0774 79.5673 50.8036 79.4346 50.4834C79.302 50.1631 79.2673 49.8107 79.3349 49.4707C79.4025 49.1308 79.5694 48.8185 79.8146 48.5733C80.0597 48.3282 80.372 48.1613 80.712 48.0937C81.0519 48.0261 81.4043 48.0608 81.7246 48.1934C82.0449 48.3261 82.3186 48.5507 82.5112 48.8389C82.7038 49.1272 82.8065 49.466 82.8065 49.8127C82.806 50.2773 82.6212 50.7228 82.2926 51.0514C81.9641 51.38 81.5186 51.5648 81.0539 51.5653Z" fill="#2980B9"/>
</svg>
