<svg width="118" height="118" viewBox="0 0 118 118" fill="none" xmlns="http://www.w3.org/2000/svg">
<path d="M116.726 113.671C116.293 113.238 115.722 113.01 115.106 113.01C114.513 113.01 113.92 113.261 113.486 113.671C113.053 114.105 112.825 114.675 112.825 115.291C112.825 115.907 113.076 116.478 113.486 116.911C113.92 117.345 114.49 117.573 115.106 117.573C115.7 117.573 116.293 117.322 116.726 116.911C117.16 116.501 117.388 115.907 117.388 115.291C117.388 114.675 117.16 114.105 116.726 113.671Z" fill="#0082FF"/>
<path d="M115.129 113.011H91.7419C92.0613 112.509 92.3351 111.984 92.5633 111.413C94.5712 106.531 92.4036 100.94 87.6577 98.6816L73.9904 92.1788C72.2792 91.3574 71.184 89.6233 71.184 87.7295L71.2068 75.2031C71.2068 72.9671 72.1423 70.7539 73.7166 69.1795L81.4515 61.5359C85.1935 57.8624 87.3383 52.7286 87.3383 47.4807C87.3383 41.3658 84.4405 35.5247 79.5806 31.8056C79.5806 31.8056 69.4499 24.0707 63.8826 19.8496C62.5136 18.8 60.7111 18.6403 59.1595 19.3933C59.0911 19.4389 59.0226 19.4617 58.9542 19.5074C58.8857 19.4617 58.8173 19.4389 58.7488 19.3933C57.2201 18.6403 55.3948 18.8 54.0258 19.8496C48.4585 24.0707 38.3278 31.8056 38.3278 31.8056C33.4678 35.5019 30.5701 41.3658 30.5701 47.4807C30.5701 52.7286 32.7149 57.8396 36.434 61.5131L44.2145 69.2251C45.8117 70.7995 46.7244 73.0127 46.7244 75.2488L46.7472 87.7295C46.7472 89.6233 45.652 91.3574 43.9407 92.1788L30.1366 98.75C25.4592 100.986 23.3144 106.508 25.2994 111.299C25.5504 111.915 25.8699 112.486 26.2121 113.033H2.87055C1.61562 113.033 0.588867 114.06 0.588867 115.315C0.588867 116.57 1.61562 117.597 2.87055 117.597H115.129C116.384 117.597 117.411 116.57 117.411 115.315C117.411 114.06 116.384 113.011 115.129 113.011ZM72.051 51.9528L69.5868 54.3942C69.7009 53.801 69.7465 53.1849 69.7465 52.5461V51.1086C69.7465 45.1762 64.9322 40.3619 58.9998 40.3619C53.0675 40.3619 48.2531 45.1762 48.2531 51.1086V52.5461C48.2531 53.1849 48.3216 53.801 48.4128 54.3942L45.9258 51.9528C44.7393 50.7664 44.0548 49.1464 44.0548 47.4579C44.0548 45.5185 44.9903 43.6475 46.519 42.4611L56.5812 34.7718C57.5167 34.0645 58.3153 33.2203 58.9998 32.2848C59.6843 33.2203 60.4829 34.0645 61.4184 34.7718L71.4806 42.4611C73.0321 43.6475 73.9448 45.5185 73.9448 47.4579C73.9448 49.1464 73.2603 50.7664 72.051 51.9528ZM65.1832 52.5461C65.1832 55.9686 62.3995 58.7294 58.9998 58.7294C55.6001 58.7294 52.8165 55.9458 52.8165 52.5461V51.1086C52.8165 47.6861 55.6001 44.9253 58.9998 44.9253C62.3995 44.9253 65.1832 47.7089 65.1832 51.1086V52.5461ZM32.1673 102.857L45.9714 96.2858C49.2571 94.7115 51.379 91.3574 51.379 87.7067L51.3562 75.2259C51.3562 71.7806 49.9416 68.4037 47.5002 65.9623L39.7196 58.2503C36.8447 55.421 35.2019 51.4965 35.2019 47.4579C35.2019 42.7577 37.438 38.2628 41.1571 35.4107C41.1571 35.4107 51.1508 27.7899 56.741 23.5459C56.7638 23.8197 56.8322 24.0935 56.9463 24.3445C56.8094 24.6183 56.741 24.9378 56.741 25.28C56.741 27.5617 55.6458 29.7749 53.8432 31.1667L43.781 38.856C41.1115 40.8867 39.5143 44.1267 39.5143 47.4807C39.5143 50.3785 40.7008 53.1849 42.7543 55.2156L46.0855 58.5012C49.5537 61.9238 54.1398 63.7947 59.0226 63.7947C63.8826 63.7947 68.4916 61.9009 71.9597 58.5012L75.291 55.2156C77.3445 53.1849 78.531 50.3785 78.531 47.4807C78.531 44.1267 76.9338 40.8867 74.2642 38.856L64.202 31.1667C62.3767 29.7749 61.3043 27.5845 61.3043 25.28C61.3043 24.9378 61.2359 24.6411 61.099 24.3445C61.2131 24.0935 61.2815 23.8426 61.3043 23.5459C66.8944 27.7899 76.8882 35.4107 76.8654 35.4107C80.5845 38.2628 82.8205 42.7577 82.8205 47.4579C82.8205 51.4965 81.1777 55.421 78.3028 58.2503L70.5679 65.9167C68.1037 68.3353 66.7119 71.7122 66.6891 75.1575L66.6663 87.6839C66.6663 91.3346 68.7882 94.6887 72.0738 96.263L85.7411 102.766C88.3194 103.998 89.483 107.01 88.3878 109.656C87.2698 112.349 84.2808 113.672 81.5428 112.645L64.0195 106.12H70.3169C71.5719 106.12 72.5986 105.093 72.5986 103.838C72.5986 102.583 71.5719 101.557 70.3169 101.557H62.8559C62.5592 101.557 62.2626 101.625 61.9888 101.739L36.4112 112.372C35.1107 112.919 33.696 112.919 32.3955 112.372C31.0949 111.824 30.091 110.82 29.5662 109.542C28.5166 106.987 29.6574 104.044 32.1673 102.857ZM57.4483 108.561L69.3815 113.011H46.77L57.4483 108.561Z" fill="#0082FF"/>
<path d="M58.9999 16.0392C60.2549 16.0392 61.2816 15.0124 61.2816 13.7575V3.03363C61.2816 1.77871 60.2549 0.751953 58.9999 0.751953C57.745 0.751953 56.7183 1.77871 56.7183 3.03363V13.7575C56.7183 15.0124 57.745 16.0392 58.9999 16.0392Z" fill="#0082FF"/>
<path d="M30.7298 22.063C31.1861 22.5193 31.7565 22.7247 32.3497 22.7247C32.943 22.7247 33.5134 22.4965 33.9697 22.063C34.8596 21.1731 34.8596 19.7357 33.9697 18.8458L25.596 10.4721C24.7061 9.58222 23.2687 9.58222 22.3788 10.4721C21.489 11.3619 21.489 12.7994 22.3788 13.6892L30.7298 22.063Z" fill="#0082FF"/>
<path d="M18.3403 8.73718C18.9335 8.73718 19.5267 8.4862 19.9603 8.0755C20.3938 7.64198 20.6219 7.07156 20.6219 6.45551C20.6219 5.86227 20.371 5.26903 19.9603 4.83551C19.5267 4.402 18.9335 4.17383 18.3403 4.17383C17.747 4.17383 17.1538 4.42481 16.7203 4.83551C16.2868 5.24622 16.0586 5.83945 16.0586 6.45551C16.0586 7.04874 16.3096 7.64198 16.7203 8.0755C17.1538 8.4862 17.747 8.73718 18.3403 8.73718Z" fill="#0082FF"/>
<path d="M84.8057 23.5917C85.3989 23.5917 85.9694 23.3636 86.4257 22.93L98.6098 10.7459C99.4997 9.85603 99.4997 8.41857 98.6098 7.52872C97.72 6.63886 96.2825 6.63886 95.3927 7.52872L83.1857 19.6901C82.2958 20.5799 82.2958 22.0174 83.1857 22.9072C83.642 23.3636 84.2125 23.5917 84.8057 23.5917Z" fill="#0082FF"/>
<path d="M7.75336 49.3973H22.6299C23.8848 49.3973 24.9116 48.3706 24.9116 47.1157C24.9116 45.8607 23.8848 44.834 22.6299 44.834H7.75336C6.49843 44.834 5.47168 45.8607 5.47168 47.1157C5.47168 48.3706 6.49843 49.3973 7.75336 49.3973Z" fill="#0082FF"/>
<path d="M110.246 44.834H95.3698C94.1149 44.834 93.0881 45.8607 93.0881 47.1157C93.0881 48.3706 94.1149 49.3973 95.3698 49.3973H110.246C111.501 49.3973 112.528 48.3706 112.528 47.1157C112.528 45.8607 111.501 44.834 110.246 44.834Z" fill="#0082FF"/>
</svg>
