<svg width="96" height="133" viewBox="0 0 96 133" fill="none" xmlns="http://www.w3.org/2000/svg">
<path d="M28.7209 87.1634C28.7209 88.2177 27.8662 89.0724 26.8119 89.0724C25.7575 89.0724 24.9028 88.2177 24.9028 87.1634C24.9028 86.1091 25.7575 85.2544 26.8119 85.2544C27.8662 85.2544 28.7209 86.1091 28.7209 87.1634Z" fill="#00C643" stroke="#CAFFDC" stroke-width="0.5"/>
<path d="M71.9069 100.12C71.9069 101.174 71.0522 102.029 69.9979 102.029C68.9436 102.029 68.0889 101.174 68.0889 100.12C68.0889 99.0656 68.9436 98.2109 69.9979 98.2109C71.0522 98.2109 71.9069 99.0656 71.9069 100.12Z" fill="#00C643" stroke="#CAFFDC" stroke-width="0.5"/>
<path d="M87.0997 57.2374L87.0998 57.2375C92.5395 62.1019 95.6592 69.0751 95.6589 76.3683C95.6589 85.1822 91.2054 93.2728 83.74 98.0182L83.7398 98.0182C83.0918 98.4306 82.7 99.1894 82.7 99.9889V102.282C82.7 105.715 79.9059 108.509 76.4727 108.509H74.3137H74.0637V108.759C74.0637 109.813 73.2104 110.668 72.1547 110.668H71.7422H71.5346L71.4965 110.872C71.0073 113.493 70.0781 115.956 68.794 118.197L68.7199 118.327L68.7985 118.453C69.3895 119.407 69.7455 120.516 69.7455 121.714C69.7455 125.147 66.9513 127.941 63.5182 127.941C62.3231 127.941 61.211 127.585 60.2579 126.994L60.1312 126.915L60.0019 126.99C56.5766 128.953 52.6269 130.1 48.4044 130.1C47.1971 130.1 46.0213 129.977 44.8573 129.792L44.7133 129.77L44.6226 129.884C43.4763 131.323 41.7369 132.261 39.7659 132.261C36.3329 132.261 33.5386 129.467 33.5386 126.034C33.5386 125.686 33.5834 125.346 33.643 124.999L33.6676 124.856L33.5551 124.763C30.4484 122.216 28.0086 118.901 26.5283 115.096L26.4715 114.95L26.3153 114.938C23.1126 114.68 20.5818 112.024 20.5818 108.761C20.5818 106.061 22.3198 103.777 24.7339 102.917L24.9 102.857V102.681V97.9657V97.7157H24.65C23.5943 97.7157 22.741 96.8605 22.741 95.8066V95.5566H22.491H20.332C16.899 95.5566 14.1047 92.7625 14.1047 89.3294V87.0343C14.1047 86.2203 13.7076 85.4763 13.0345 85.0486C4.43948 79.5685 -0.100791 69.4779 1.46468 59.3411C3.14305 48.5043 11.8807 39.7581 22.7105 38.0758L22.7105 38.0758C33.7613 36.3584 44.615 41.8527 49.6758 51.7521C50.1549 52.6893 49.7827 53.8404 48.8435 54.3196L48.8421 54.3204C47.9087 54.8041 46.7551 54.4297 46.2734 53.4891C41.9638 45.0625 32.7446 40.3764 23.2944 41.8503C14.0885 43.2812 6.66308 50.7132 5.2387 59.9257C3.88274 68.6957 7.65473 77.0914 15.0867 81.8283C16.8599 82.9586 17.9226 84.9039 17.9226 87.0347V89.3297C17.9226 90.6572 19.0016 91.7388 20.3316 91.7388H33.2884C34.6184 91.7388 35.6974 90.6574 35.6974 89.3297V84.556C35.6974 83.5021 36.5507 82.6469 37.6065 82.6469C38.6622 82.6469 39.5155 83.5021 39.5155 84.556V89.3297C39.5155 92.7627 36.7214 95.557 33.2882 95.557H31.1292H30.8792V95.807C30.8792 96.8609 30.0259 97.716 28.9702 97.716H28.7202V97.966V102.682V102.858L28.8862 102.917C31.2985 103.777 33.0384 106.061 33.0384 108.762C33.0384 110.873 31.9746 112.739 30.3559 113.868L30.1903 113.983L30.2683 114.169C31.4252 116.931 33.1878 119.374 35.4009 121.329L35.5641 121.473L35.7293 121.331C36.824 120.391 38.2226 119.805 39.7659 119.805C43.1568 119.805 45.9118 122.53 45.9824 125.905L45.987 126.123L46.203 126.148C46.9243 126.234 47.6574 126.282 48.4044 126.282C51.704 126.282 54.7946 125.433 57.5246 123.993L57.7131 123.893L57.6447 123.691C57.4307 123.06 57.2909 122.403 57.2909 121.712C57.2909 118.279 60.085 115.484 63.5182 115.484C64.2073 115.484 64.8641 115.624 65.4979 115.838L65.6996 115.906L65.799 115.718C66.5984 114.205 67.1822 112.576 67.5644 110.867L67.6175 110.63L67.3819 110.57C66.545 110.358 65.9274 109.642 65.9274 108.757V108.507H65.6774H63.5184C60.0854 108.507 57.2911 105.713 57.2911 102.28V99.9848C57.2911 99.1709 56.8941 98.427 56.2212 97.9993C47.6281 92.5192 43.0856 82.4327 44.6511 72.3001L44.6511 72.3001C46.3718 61.1459 55.7945 52.1311 67.0503 50.8741C74.3539 50.0593 81.6671 52.3756 87.0997 57.2374ZM58.2736 94.7784L58.408 94.5676L58.2736 94.7784C60.0468 95.9087 61.1095 97.854 61.1095 99.9848V102.28C61.1095 103.607 62.1885 104.689 63.5186 104.689H76.4753C77.8054 104.689 78.8844 103.608 78.8844 102.28V99.987C78.8844 97.8509 79.937 95.9128 81.694 94.7938C88.0466 90.7581 91.841 83.8687 91.8412 76.3687C91.8412 70.1615 89.1854 64.2252 84.5551 60.0863C80.4977 56.4567 75.414 54.5276 70.0283 54.5276C69.1833 54.5276 68.332 54.5757 67.4771 54.6694L67.4765 54.6694C57.8974 55.7399 49.8895 63.3953 48.4256 72.8823C47.0719 81.6502 50.8439 90.0415 58.2736 94.7784ZM24.4026 108.757C24.4026 110.087 25.4818 111.166 26.8117 111.166C28.1417 111.166 29.2207 110.085 29.2207 108.757C29.2207 107.43 28.1417 106.348 26.8117 106.348C25.4817 106.348 24.4026 107.43 24.4026 108.757ZM37.3572 126.032C37.3572 127.36 38.4362 128.441 39.7662 128.441C41.0962 128.441 42.1753 127.36 42.1753 126.032C42.1753 124.705 41.0963 123.623 39.7662 123.623C38.4362 123.623 37.3572 124.705 37.3572 126.032ZM61.1093 121.714C61.1093 123.041 62.1884 124.123 63.5184 124.123C64.8486 124.123 65.9274 123.041 65.9274 121.714C65.9274 120.386 64.8484 119.305 63.5184 119.305C62.1884 119.305 61.1093 120.386 61.1093 121.714Z" fill="#00C643" stroke="#CAFFDC" stroke-width="0.5"/>
<path d="M9.78662 63.4132C9.78662 54.0253 17.4237 46.3882 26.8117 46.3882C36.1994 46.3882 43.8367 54.0275 43.8367 63.4132C43.8367 72.799 36.1996 80.4383 26.8117 80.4383C17.4237 80.4383 9.78662 72.8012 9.78662 63.4132ZM13.6049 63.4132C13.6049 70.6936 19.5291 76.6178 26.8117 76.6178C34.094 76.6178 40.0184 70.6936 40.0184 63.4132C40.0184 56.1328 34.0942 50.2087 26.8117 50.2087C19.5291 50.2087 13.6049 56.1328 13.6049 63.4132Z" fill="#00C643" stroke="#CAFFDC" stroke-width="0.5"/>
<path d="M52.9731 76.3698C52.9731 66.9818 60.6102 59.3447 69.9982 59.3447C79.384 59.3447 87.0232 66.98 87.0232 76.3677C87.0232 85.7555 79.3861 93.3948 69.9982 93.3948C60.6102 93.3948 52.9731 85.7577 52.9731 76.3698ZM56.7914 76.3698C56.7914 83.6502 62.7156 89.5743 69.9982 89.5743C77.2807 89.5743 83.205 83.6502 83.205 76.3698C83.205 69.0894 77.2807 63.1652 69.9982 63.1652C62.7156 63.1652 56.7914 69.0894 56.7914 76.3698Z" fill="#00C643" stroke="#CAFFDC" stroke-width="0.5"/>
<circle cx="72.157" cy="19.1018" r="16.9123" stroke="#00C643" stroke-width="3"/>
<path d="M60.8208 30.4382L83.4934 7.76562" stroke="#00C643" stroke-width="3"/>
</svg>
