<svg width="91" height="85" viewBox="0 0 91 85" fill="none" xmlns="http://www.w3.org/2000/svg">
<path d="M62.6683 45.9294L62.4441 45.627C60.7729 43.373 58.2226 39.8941 55.4525 36.0653L55.0569 35.5184L55.0496 35.5084L55.0434 35.4977C53.866 33.4767 52.3487 32.0061 50.46 31.2252C48.5721 30.4445 46.2848 30.3413 43.5455 31.1063C41.5462 31.6686 39.6115 32.5121 37.8289 33.5936C36.9169 34.1744 36.6625 35.3728 37.2472 36.2858L62.6683 45.9294ZM62.6683 45.9294L62.8601 45.6055L67.2122 38.2555L67.2801 38.1408L67.2228 38.0205L62.8926 28.9424L62.8374 28.8268L62.7114 28.804L62.4696 28.7602L62.1751 28.7069V29.0062V37.1875C62.1751 38.2514 61.2991 39.125 60.2271 39.125C59.1551 39.125 58.279 38.2514 58.279 37.1875V20.3437V20.0937H58.029H4.39614H4.14614V20.3437V37.2094C4.14614 38.0704 4.85268 38.7719 5.71498 38.7719H38.4002H38.8605L38.61 38.3858L37.2479 36.2869L62.6683 45.9294ZM90.4377 28.2659L90.4392 28.2683C90.7279 28.7088 90.8097 29.2304 90.7111 29.7656L83.7222 61.0204L83.7162 61.0474V61.075V81.8344C83.7162 82.8983 82.8401 83.7719 81.7681 83.7719C80.6961 83.7719 79.8201 82.8983 79.8201 81.8344V60.8344C79.8201 60.653 79.8217 60.5357 79.8543 60.4221L79.8564 60.4149L79.858 60.4076L86.694 29.7826L86.7167 29.6811L86.6607 29.5936L75.4286 12.0061L75.3626 11.9027L75.2405 11.8916L62.4477 10.7323L62.1751 10.7076V10.9812V15.5969V15.8144L62.3906 15.8445L69.7541 16.8726L69.7578 16.8731C70.3719 16.9495 70.9192 17.3528 71.2146 17.92C71.2149 17.9205 71.2151 17.921 71.2154 17.9215L76.4892 28.4185C76.7812 28.9997 76.7613 29.6971 76.4313 30.2574C76.4313 30.2574 76.4313 30.2574 76.4312 30.2575L64.5617 50.3824L64.5614 50.3829C64.4247 50.6162 64.2502 50.8088 64.037 50.9631L64.034 50.9653C63.1805 51.6023 61.951 51.4117 61.3059 50.5558L61.2952 50.5416L61.2925 50.5389L61.2885 50.5337L61.2506 50.4837C61.2171 50.4394 61.1684 50.3744 61.1052 50.2896C60.9788 50.1203 60.7952 49.8731 60.5609 49.5567C60.0923 48.9239 59.4214 48.015 58.6013 46.8996C56.9613 44.6687 54.7252 41.6122 52.3187 38.2878L52.318 38.2869C52.0551 37.927 51.792 37.5616 51.5284 37.1953L51.5278 37.1946C51.2642 36.8285 51.0001 36.4615 50.7358 36.0999C49.7174 34.6865 48.1092 34.3481 46.4954 34.4857C44.8819 34.6232 43.2084 35.2382 41.9678 35.8004L41.7023 35.9207L41.8617 36.1648L60.5422 64.7725C60.7418 65.1119 60.8563 65.4823 60.8563 65.8437V81.8125C60.8563 82.8764 59.9802 83.75 58.9082 83.75C57.8362 83.75 56.9602 82.8764 56.9602 81.8125V66.5V66.4256L56.9195 66.3633L41.3572 42.5196L41.2319 42.3276L41.0298 42.4359C40.7879 42.5655 40.5008 42.625 40.2027 42.625H5.71498C2.68669 42.625 0.25 40.1983 0.25 37.1875V5.6875C0.25 2.67671 2.68669 0.25 5.71498 0.25H56.7102C59.7384 0.25 62.1751 2.67671 62.1751 5.6875V6.58437V6.81278L62.4026 6.83336L76.6666 8.12385C76.6669 8.12387 76.6671 8.1239 76.6674 8.12392C77.2695 8.18215 77.7955 8.51003 78.1292 9.01705C78.1296 9.01754 78.1299 9.01803 78.1302 9.01852L90.4377 28.2659ZM4.39614 12.875H4.14614V13.125V15.9687V16.2187H4.39614H58.029H58.279V15.9687V13.125V12.875H58.029H4.39614ZM58.029 9H58.279V8.75V5.6875C58.279 4.82642 57.5724 4.125 56.7102 4.125H5.71498C4.85268 4.125 4.14614 4.82642 4.14614 5.6875V8.75V9H4.39614H58.029ZM72.444 29.3518L72.513 29.2346L72.452 29.113L68.2317 20.6911L68.173 20.5739L68.0431 20.5556L62.46 19.7681L62.1751 19.7279V20.0156V24.5437V24.7489L62.3763 24.7889L64.5744 25.2264C65.1569 25.3424 65.6837 25.7508 65.9353 26.2901L65.9362 26.292L69.4531 33.6639L69.6556 34.0883L69.8942 33.6831L72.444 29.3518Z" fill="#00C643" stroke="#CAFFDC" stroke-width="0.5"/>
<path d="M9.45173 24.5312H27.2561C28.3281 24.5312 29.2041 25.4048 29.2041 26.4688C29.2041 27.5327 28.3281 28.4062 27.2561 28.4062H9.45173C8.37973 28.4062 7.50366 27.5327 7.50366 26.4688C7.50366 25.4048 8.37973 24.5312 9.45173 24.5312Z" fill="#00C643" stroke="#CAFFDC" stroke-width="0.5"/>
</svg>
