<svg width="83" height="83" viewBox="0 0 83 83" fill="none" xmlns="http://www.w3.org/2000/svg">
<path d="M41.9092 0.351562C19.3021 0.351562 0.90918 18.7445 0.90918 41.3516C0.90918 63.9586 19.3021 82.3516 41.9092 82.3516C64.518 82.3516 82.9092 63.9586 82.9092 41.3516C82.9092 18.7445 64.518 0.351562 41.9092 0.351562ZM41.9092 78.7863C21.2666 78.7863 4.4744 61.9942 4.4744 41.3516C4.4744 20.709 21.2666 3.91678 41.9092 3.91678C62.55 3.91678 79.344 20.709 79.344 41.3516C79.344 61.9942 62.55 78.7863 41.9092 78.7863Z" fill="#00C643"/>
<path d="M32.9959 34.2214C32.9959 31.2729 30.5966 28.8735 27.6481 28.8735C24.6997 28.8735 22.3003 31.2729 22.3003 34.2214C22.3003 37.1698 24.6997 39.5692 27.6481 39.5692C30.5966 39.5692 32.9959 37.1698 32.9959 34.2214Z" fill="#00C643"/>
<path d="M56.1701 28.8735C53.2217 28.8735 50.8223 31.2729 50.8223 34.2214C50.8223 37.1698 53.2217 39.5692 56.1701 39.5692C59.1185 39.5692 61.5179 37.1698 61.5179 34.2214C61.5179 31.2729 59.1185 28.8735 56.1701 28.8735Z" fill="#00C643"/>
<path d="M41.9092 60.9604C35.2637 60.9604 28.9318 58.1457 24.5377 53.2364C23.8817 52.502 23.9441 51.3754 24.6767 50.7194C25.4112 50.0616 26.5378 50.1258 27.1938 50.8584C30.9123 55.0137 36.2762 57.3952 41.9092 57.3952C47.5423 57.3952 52.9061 55.0137 56.6247 50.8584C56.9758 50.4645 57.4643 50.2648 57.9527 50.2648C58.3752 50.2648 58.803 50.4146 59.1417 50.7194C59.8744 51.3754 59.9367 52.502 59.2807 53.2364C54.8866 58.1439 48.5566 60.9604 41.9092 60.9604Z" fill="#00C643"/>
</svg>
