<svg width="83" height="83" viewBox="0 0 83 83" fill="none" xmlns="http://www.w3.org/2000/svg">
<g clip-path="url(#clip0)">
<path d="M33.9 20.4461H24.5268C22.5787 20.4461 20.9936 22.031 20.9936 23.9793V36.987H20.5867C18.6385 36.987 17.0535 38.5719 17.0535 40.5202C17.0535 42.4684 18.6384 44.0534 20.5867 44.0534H20.9936V46.2527H20.5867C18.6385 46.2527 17.0535 47.8378 17.0535 49.7859C17.0535 51.7341 18.6384 53.3191 20.5867 53.3191H20.9936V56.5868C20.9936 58.5349 22.5785 60.12 24.5268 60.12C26.475 60.12 28.06 58.5351 28.06 56.5868V53.3191H33.3486C35.2967 53.3191 36.8818 51.7342 36.8818 49.7859C36.8818 47.8378 35.2969 46.2527 33.3486 46.2527H28.06V44.0534H33.9C40.4086 44.0534 45.7035 38.7584 45.7035 32.2499C45.7035 25.741 40.4086 20.4461 33.9 20.4461ZM33.9 41.6508H26.8589C26.1955 41.6508 25.6577 42.1886 25.6577 42.8519V47.4536C25.6577 48.1169 26.1955 48.6547 26.8589 48.6547H33.3486C33.9721 48.6547 34.4794 49.1621 34.4794 49.7856C34.4794 50.4091 33.9722 50.9165 33.3486 50.9165H26.8589C26.1955 50.9165 25.6577 51.4543 25.6577 52.1176V56.5865C25.6577 57.21 25.1505 57.7173 24.5268 57.7173C23.9034 57.7173 23.396 57.2101 23.396 56.5865V52.1176C23.396 51.4543 22.8582 50.9165 22.1948 50.9165H20.5867C19.9632 50.9165 19.4558 50.4092 19.4558 49.7856C19.4558 49.1621 19.963 48.6547 20.5867 48.6547H22.1948C22.8582 48.6547 23.396 48.1169 23.396 47.4536V42.8519C23.396 42.1886 22.8582 41.6508 22.1948 41.6508H20.5867C19.9632 41.6508 19.4558 41.1436 19.4558 40.5199C19.4558 39.8963 19.963 39.3891 20.5867 39.3891H22.1948C22.8582 39.3891 23.396 38.8512 23.396 38.1879V23.979C23.396 23.3555 23.9032 22.8481 24.5268 22.8481H33.9C39.0838 22.8481 43.3012 27.0655 43.3012 32.2493C43.3012 37.4331 39.0838 41.6508 33.9 41.6508ZM17.8024 72.1135C13.2437 68.5812 9.47215 63.9974 6.89572 58.8576C4.19436 53.4689 2.82471 47.6573 2.82471 41.5845C2.82471 31.2746 6.8395 21.5819 14.1297 14.2918C21.4198 7.00161 31.1125 2.98682 41.4224 2.98682C46.7879 2.98682 51.9805 4.06643 56.8558 6.19571C61.5659 8.25275 65.7627 11.1884 69.3299 14.9209C69.7883 15.4004 70.5485 15.4177 71.028 14.9593C71.5077 14.5009 71.5248 13.7407 71.0665 13.261C67.2783 9.29713 62.8205 6.17937 57.8171 3.9942C52.6368 1.73167 47.1209 0.584473 41.4224 0.584473C30.4709 0.584473 20.1748 4.84911 12.4309 12.5931C4.68716 20.3369 0.422363 30.633 0.422363 41.5845C0.422363 48.0344 1.8777 54.2081 4.74802 59.9341C7.48445 65.3931 11.4898 70.2612 16.3308 74.0124C16.5498 74.182 16.8088 74.2642 17.0656 74.2642C17.4244 74.2642 17.7793 74.1042 18.016 73.7986C18.4223 73.2743 18.3267 72.5198 17.8024 72.1135ZM74.8064 17.7777C74.4208 17.238 73.6706 17.1129 73.1309 17.4986C72.591 17.8842 72.4661 18.6344 72.8516 19.1741C77.5411 25.7389 80.02 33.4883 80.02 41.5845C80.02 51.8944 76.0052 61.587 68.7151 68.8772C61.4249 76.1673 51.7323 80.1821 41.4224 80.1821C34.8209 80.1821 28.3067 78.4874 22.584 75.2809C22.0053 74.9566 21.2733 75.1628 20.9489 75.7416C20.6248 76.3204 20.8309 77.0524 21.4097 77.3767C27.4904 80.7837 34.4106 82.5845 41.4224 82.5845C52.3738 82.5845 62.67 78.3197 70.4138 70.576C78.1577 62.8321 82.4224 52.536 82.4224 41.5845C82.4224 32.9846 79.7887 24.7524 74.8064 17.7777ZM41.4224 7.8695C22.8319 7.8695 7.70739 22.994 7.70739 41.5845C7.70739 60.1749 22.8319 75.2994 41.4224 75.2994C46.3999 75.2994 51.1283 74.2142 55.3851 72.2694C55.4754 72.24 55.5627 72.1993 55.6452 72.1479C59.3922 70.3972 62.7661 67.9779 65.6125 65.0434C65.7158 64.9666 65.8071 64.8726 65.8824 64.7639C71.6152 58.7174 75.1372 50.5548 75.1372 41.5846C75.1373 22.994 60.0128 7.8695 41.4224 7.8695ZM63.4113 41.5022C63.2563 44.0989 63.8647 46.7437 64.2413 48.0891C64.2544 48.1358 64.2703 48.1816 64.2888 48.2265C64.5531 48.8621 64.7773 49.5306 64.9554 50.2135C64.9575 50.2215 64.9597 50.2297 64.962 50.2377L64.9597 50.2299L64.973 50.2845C65.9682 54.1747 65.5731 58.8197 63.8681 63.393C62.566 64.7327 61.1462 65.9574 59.6241 67.0484C60.0942 66.2556 60.5284 65.4349 60.9199 64.593C63.0961 59.9142 63.7829 54.9404 62.8037 50.947C62.7915 50.8972 62.7762 50.8481 62.7576 50.8002C62.5561 50.2789 62.3535 49.6736 62.1714 49.0498C62.1573 49.0016 62.1403 48.9544 62.1203 48.9084C61.9457 48.5061 61.756 48.1262 61.5564 47.7795C59.587 44.3558 56.7826 44.0831 55.2863 44.2246C52.646 44.4745 50.0919 46.2883 49.3456 48.444C49.2468 48.7292 49.0428 48.959 48.7711 49.091C48.4993 49.223 48.1925 49.2411 47.9071 49.1424C47.6217 49.0436 47.3919 48.8396 47.2597 48.5678C47.1278 48.2961 47.1095 47.9893 47.2083 47.7039C48.1057 45.1121 50.7803 42.8891 53.8641 42.1722C54.2195 42.0896 54.518 41.85 54.6755 41.5209C54.833 41.1918 54.8324 40.809 54.674 40.4804C53.9568 38.9935 53.4447 37.3062 53.1517 35.4654C52.5314 31.5675 53.1982 28.2683 55.0294 26.1757C55.4399 25.7066 56.1558 25.6587 56.625 26.0693C56.8523 26.2682 56.9886 26.5437 57.0088 26.8451C57.0288 27.1465 56.9305 27.4377 56.7315 27.665C55.3705 29.2202 54.88 31.9339 55.3854 35.1097C55.5992 36.4532 56.0474 37.9608 56.6149 39.2457C57.3009 40.7987 58.0749 41.8796 58.9153 42.4586C58.9817 42.5044 59.0525 42.5432 59.1267 42.5749C59.2311 42.6192 59.3344 42.666 59.4371 42.7149C59.8021 42.8888 60.2298 42.8675 60.5754 42.6582C60.9212 42.449 61.1387 42.08 61.1541 41.6762C61.2998 37.8524 62.7078 35.3011 65.3387 34.0933C65.6132 33.9674 65.9203 33.9559 66.2035 34.0608C66.4867 34.1659 66.712 34.3749 66.838 34.6494C66.9641 34.9239 66.9756 35.2309 66.8706 35.5142C66.7656 35.7974 66.5565 36.0227 66.282 36.1488C65.0854 36.6983 63.6162 38.0729 63.4113 41.5022ZM67.5802 58.7755C68.0989 55.5823 68.0126 52.473 67.2996 49.6858C67.2927 49.6557 67.2854 49.6258 67.277 49.596C67.0779 48.8346 66.8288 48.0875 66.5358 47.3738C65.4722 43.5268 65.3878 39.2029 67.2841 38.3323C68.1419 37.9387 68.7948 37.2346 69.123 36.3498C69.4511 35.4649 69.415 34.5052 69.0213 33.6476C68.6276 32.79 67.9234 32.1369 67.0387 31.8089C66.1537 31.4807 65.194 31.5167 64.3364 31.9106C61.575 33.1782 59.7886 35.5538 59.0823 38.8556C58.5006 37.7095 57.9867 36.1699 57.758 34.7328C57.3766 32.3362 57.676 30.2345 58.5395 29.2476C59.1611 28.5373 59.4688 27.6277 59.406 26.6859C59.3432 25.7442 58.9175 24.8834 58.2072 24.262C56.741 22.9791 54.5044 23.1282 53.2219 24.5943C50.9126 27.2335 50.0453 31.2285 50.7797 35.8435C51.0285 37.4079 51.4216 38.8806 51.9515 40.239C48.6848 41.4224 45.9561 43.9793 44.9384 46.9185C44.6297 47.8102 44.6867 48.7689 45.0991 49.6177C45.5113 50.4667 46.2296 51.1043 47.1215 51.4131C48.0131 51.7217 48.9718 51.6647 49.8208 51.2525C50.6698 50.8401 51.3074 50.1219 51.616 49.2302C52.0515 47.9721 53.8361 46.7753 55.5131 46.6167C57.1503 46.4617 58.4836 47.2558 59.4742 48.9779C59.6182 49.2282 59.7571 49.504 59.8874 49.7987C60.0762 50.4389 60.2779 51.0412 60.488 51.5915C61.3133 55.0527 60.6784 59.4169 58.7418 63.5803C57.6001 66.035 56.0727 68.2894 54.3177 70.1173C50.3831 71.9025 46.0169 72.8974 41.4224 72.8974C24.1566 72.8974 10.1097 58.8508 10.1097 41.5848C10.1097 24.3188 24.1566 10.2718 41.4224 10.2718C58.6882 10.2718 72.735 24.3187 72.735 41.5845C72.735 47.9291 70.8363 53.8375 67.5802 58.7755ZM33.9 25.11H26.8589C26.1955 25.11 25.6577 25.6478 25.6577 26.3112V38.188C25.6577 38.8514 26.1955 39.3892 26.8589 39.3892H33.9C37.8368 39.3892 41.0396 36.1864 41.0396 32.2496C41.0396 28.3128 37.8368 25.11 33.9 25.11ZM33.9 36.9869H28.06V27.5123H33.9C36.5121 27.5123 38.6372 29.6375 38.6372 32.2496C38.6372 34.8618 36.5121 36.9869 33.9 36.9869Z" fill="#00C643"/>
</g>
<defs>
<clipPath id="clip0">
<rect width="82" height="82" fill="white" transform="translate(0.422363 0.584473)"/>
</clipPath>
</defs>
</svg>
