<svg width="26" height="31" viewBox="0 0 26 31" fill="none" xmlns="http://www.w3.org/2000/svg">
<path d="M23.3663 0.93428H2.63379C1.44733 0.93428 0.482056 1.88293 0.482056 3.04896V28.303C0.482056 29.469 1.44733 30.4177 2.63379 30.4177H23.3663C24.5528 30.4177 25.5181 29.469 25.5181 28.303V3.04896C25.518 1.88293 24.5528 0.93428 23.3663 0.93428V0.93428ZM24.3461 28.303C24.3461 28.834 23.9065 29.266 23.3663 29.266H2.63379C2.0935 29.266 1.65393 28.834 1.65393 28.303V3.04896C1.65393 2.51798 2.0935 2.08598 2.63379 2.08598H23.3663C23.9066 2.08598 24.3462 2.51798 24.3462 3.04896V28.303H24.3461Z" fill="black"/>
<path d="M8.66109 14.6638H4.68738C4.36376 14.6638 4.10144 14.9217 4.10144 15.2397V19.1204C4.10144 19.4384 4.36376 19.6963 4.68738 19.6963H8.66109C8.9847 19.6963 9.24703 19.4384 9.24703 19.1204V15.2397C9.24703 14.9216 8.9847 14.6638 8.66109 14.6638ZM8.07515 18.5446H5.27332V15.8155H8.07515V18.5446Z" fill="black"/>
<path d="M8.66109 21.6104H4.68738C4.36376 21.6104 4.10144 21.8682 4.10144 22.1862V26.0669C4.10144 26.3849 4.36376 26.6428 4.68738 26.6428H8.66109C8.9847 26.6428 9.24703 26.3849 9.24703 26.0669V22.1862C9.24703 21.8682 8.9847 21.6104 8.66109 21.6104ZM8.07515 25.491H5.27332V22.762H8.07515V25.491Z" fill="black"/>
<path d="M14.9869 14.6638H11.0132C10.6896 14.6638 10.4272 14.9217 10.4272 15.2397V19.1204C10.4272 19.4384 10.6896 19.6963 11.0132 19.6963H14.9869C15.3105 19.6963 15.5728 19.4384 15.5728 19.1204V15.2397C15.5728 14.9216 15.3105 14.6638 14.9869 14.6638ZM14.4009 18.5446H11.5991V15.8155H14.4009V18.5446Z" fill="black"/>
<path d="M14.9869 21.6104H11.0132C10.6896 21.6104 10.4272 21.8682 10.4272 22.1862V26.0669C10.4272 26.3849 10.6896 26.6428 11.0132 26.6428H14.9869C15.3105 26.6428 15.5728 26.3849 15.5728 26.0669V22.1862C15.5728 21.8682 15.3105 21.6104 14.9869 21.6104ZM14.4009 25.491H11.5991V22.762H14.4009V25.491Z" fill="black"/>
<path d="M21.3127 14.6638H17.339C17.0154 14.6638 16.7531 14.9217 16.7531 15.2397V26.0669C16.7531 26.3849 17.0154 26.6427 17.339 26.6427H21.3127C21.6363 26.6427 21.8986 26.3849 21.8986 26.0669V15.2397C21.8986 14.9216 21.6363 14.6638 21.3127 14.6638ZM20.7268 25.491H17.9249V15.8155H20.7268V25.491Z" fill="black"/>
<path d="M21.3127 4.80733H4.68738C4.36376 4.80733 4.10144 5.06519 4.10144 5.38317V10.3052C4.10144 10.6232 4.36376 10.8811 4.68738 10.8811H10.3512C10.6748 10.8811 10.9372 10.6232 10.9372 10.3052C10.9372 9.98724 10.6748 9.72938 10.3512 9.72938H5.27332V5.95902H20.7267V9.72938H15.6488C15.3252 9.72938 15.0629 9.98724 15.0629 10.3052C15.0629 10.6232 15.3252 10.8811 15.6488 10.8811H21.3127C21.6363 10.8811 21.8986 10.6232 21.8986 10.3052V5.38317C21.8986 5.06513 21.6363 4.80733 21.3127 4.80733Z" fill="black"/>
<path d="M12.5237 10.6246C12.6577 10.8254 12.9173 10.9222 13.1535 10.8636C13.3868 10.8057 13.5659 10.6064 13.5928 10.3709C13.6202 10.1314 13.4898 9.8959 13.2698 9.78908C13.0475 9.68117 12.7719 9.72591 12.5964 9.89797C12.4009 10.0895 12.371 10.3994 12.5237 10.6246Z" fill="black"/>
</svg>
