<svg width="317" height="594" viewBox="0 0 317 594" fill="none" xmlns="http://www.w3.org/2000/svg">
<path d="M0.4625 59.8795C10.0625 51.6128 20.3292 43.8795 31.2625 36.6795C42.4625 29.4795 54.4625 23.2128 67.2625 17.8795C80.3292 12.5461 94.3292 8.41279 109.263 5.47948C124.463 2.27945 140.729 0.679441 158.063 0.679441C182.063 0.679441 203.796 4.01279 223.263 10.6795C242.729 17.0795 259.396 26.4128 273.263 38.6795C287.129 50.6795 297.796 65.2128 305.263 82.2795C312.996 99.3462 316.863 118.413 316.863 139.479C316.863 159.746 313.929 177.346 308.063 192.279C302.463 206.946 295.263 219.746 286.463 230.679C277.929 241.613 268.463 251.079 258.063 259.079C247.663 267.079 237.796 274.546 228.463 281.479C219.129 288.413 210.996 295.346 204.063 302.279C197.396 308.946 193.263 316.413 191.663 324.679L181.663 381.879H106.063L98.4625 317.079C96.5958 304.279 98.1958 293.213 103.263 283.879C108.329 274.279 115.129 265.613 123.663 257.879C132.196 249.879 141.663 242.279 152.063 235.079C162.729 227.613 172.596 219.746 181.663 211.479C190.996 202.946 198.729 193.479 204.863 183.079C211.263 172.413 214.463 159.879 214.463 145.479C214.463 127.879 208.329 113.879 196.063 103.479C184.063 93.0795 168.063 87.8795 148.063 87.8795C133.396 87.8795 120.996 89.4795 110.863 92.6794C100.996 95.8795 92.4625 99.4795 85.2625 103.479C78.0625 107.213 71.9292 110.679 66.8625 113.879C61.7958 117.079 56.9958 118.679 52.4625 118.679C42.3292 118.679 34.7292 114.279 29.6625 105.479L0.4625 59.8795ZM75.2625 529.479C75.2625 520.679 76.8625 512.413 80.0625 504.679C83.5292 496.679 88.1958 489.879 94.0625 484.279C99.9292 478.413 106.729 473.879 114.463 470.679C122.463 467.213 131.129 465.479 140.463 465.479C149.529 465.479 158.063 467.213 166.063 470.679C174.063 473.879 180.996 478.413 186.863 484.279C192.729 489.879 197.263 496.679 200.463 504.679C203.929 512.413 205.663 520.679 205.663 529.479C205.663 538.546 203.929 546.946 200.463 554.679C197.263 562.413 192.729 569.213 186.863 575.079C180.996 580.679 174.063 585.079 166.063 588.279C158.063 591.479 149.529 593.079 140.463 593.079C131.129 593.079 122.463 591.479 114.463 588.279C106.729 585.079 99.9292 580.679 94.0625 575.079C88.1958 569.213 83.5292 562.413 80.0625 554.679C76.8625 546.946 75.2625 538.546 75.2625 529.479Z" fill="#DAF2FF"/>
</svg>
