<svg width="32" height="32" viewBox="0 0 32 32" fill="none" xmlns="http://www.w3.org/2000/svg">
<path d="M26.5563 5.05762H10.2916V31.9122H26.5563V5.05762Z" fill="white"/>
<path d="M26.9777 0.933594H4.90132C2.65236 0.933594 0.828491 2.80365 0.828491 5.11051V27.7559C0.828491 30.0628 2.65162 31.9328 4.90058 31.9328H15.7883L15.8068 20.8551H13.0011C12.6367 20.8551 12.3409 20.5525 12.3395 20.1786L12.3262 16.6076C12.3247 16.2315 12.6219 15.9259 12.9886 15.9259H15.7891V12.4755C15.7891 8.47145 18.1733 6.29123 21.6554 6.29123H24.5129C24.8788 6.29123 25.1745 6.59533 25.1745 6.9707V9.9813C25.1745 10.3559 24.8781 10.66 24.5129 10.6608L22.7592 10.6615C20.8659 10.6615 20.4984 11.5844 20.4984 12.9396V15.9266H24.66C25.0562 15.9266 25.3638 16.2815 25.3172 16.6857L24.9047 20.2567C24.8655 20.5988 24.5824 20.8558 24.2474 20.8558H20.5177L20.4992 31.9336H26.9777C29.2267 31.9336 31.0498 30.0635 31.0498 27.7567V5.11051C31.0505 2.80365 29.2267 0.933594 26.9777 0.933594Z" fill="#475993"/>
</svg>
