<svg width="154" height="154" viewBox="0 0 154 154" fill="none" xmlns="http://www.w3.org/2000/svg">
<path d="M131.088 0.743164C126.046 0.743164 121.389 2.4175 117.641 5.23784V0.743164H36.3594V5.23784C32.6109 2.4175 27.9536 0.743164 22.9121 0.743164C10.5541 0.743164 0.5 10.7972 0.5 23.1553C0.5 33.9624 8.33228 41.8816 15.2427 48.8688C21.4921 55.1876 27.3945 61.1558 27.3945 68.2783C27.3945 70.7499 25.3837 72.7607 22.9121 72.7607C20.4405 72.7607 18.4297 70.7499 18.4297 68.2783V63.7959H9.46484V68.2783C9.46484 75.6931 15.4973 81.7256 22.9121 81.7256C30.3269 81.7256 36.3594 75.6931 36.3594 68.2783C36.3594 57.4712 28.5271 49.552 21.6167 42.5648C15.3673 36.246 9.46484 30.2778 9.46484 23.1553C9.46484 15.7405 15.4973 9.70801 22.9121 9.70801C30.3269 9.70801 36.3594 15.7405 36.3594 23.1553V41.3838C36.3594 50.5016 39.394 59.1237 45.1351 66.3174C49.9226 72.3164 56.3713 76.8873 63.5527 79.4276V100.106C54.7848 101.893 47.8666 108.817 46.0788 117.585H36.6582V153.743H117.342V117.585H107.921C106.134 108.817 99.2152 101.893 90.4473 100.106V79.4276C97.6287 76.8876 104.077 72.3167 108.865 66.3174C114.606 59.1237 117.641 50.5016 117.641 41.3838C117.641 35.6606 117.641 29.0009 117.641 23.1553C117.641 15.7405 123.673 9.70801 131.088 9.70801C138.503 9.70801 144.535 15.7405 144.535 23.1553C144.535 30.2778 138.633 36.246 132.383 42.5648C125.473 49.552 117.641 57.4712 117.641 68.2783C117.641 75.6931 123.673 81.7256 131.088 81.7256C138.503 81.7256 144.535 75.6931 144.535 68.2783V63.7959H135.57V68.2783C135.57 70.7499 133.559 72.7607 131.088 72.7607C128.616 72.7607 126.605 70.7499 126.605 68.2783C126.605 61.1558 132.508 55.1876 138.757 48.8688C145.668 41.8816 153.5 33.9624 153.5 23.1553C153.5 10.7972 143.446 0.743164 131.088 0.743164ZM108.377 144.778H45.623V126.55H108.377V144.778ZM108.676 41.3838C108.676 55.6651 98.8772 68.1615 84.8475 71.7722L81.4824 72.6385V108.62H85.9648C91.8084 108.62 96.7908 112.368 98.6411 117.585H55.3589C57.2092 112.368 62.1916 108.62 68.0352 108.62H72.5176V72.6385L69.1525 71.7725C55.1228 68.1615 45.3242 55.6654 45.3242 41.3838C45.3242 34.4053 45.3242 16.8673 45.3242 9.70801H108.676V41.3838Z" fill="#FFD600"/>
</svg>
