<svg width="29" height="32" viewBox="0 0 29 32" fill="none" xmlns="http://www.w3.org/2000/svg">
<path d="M26.4603 23.5711C22.4616 20.2032 21.3473 21.87 19.5446 23.7601C18.2827 25.0832 15.087 22.3167 12.3175 19.4127C9.54789 16.5088 6.90942 13.158 8.1713 11.8349C9.99037 9.94474 11.5636 8.75909 8.35157 4.58354C5.1559 0.407992 3.00907 3.62127 1.25555 5.45989C-0.760173 7.59062 1.15723 15.4949 8.61377 23.3134C16.0703 31.1318 23.5269 33.0047 25.6409 31.0115C27.4764 29.2931 30.4426 26.939 26.4603 23.5711Z" fill="black"/>
<path d="M15.7919 8.99963C15.4805 8.84498 15.1855 8.70752 14.8905 8.58723L14.1531 10.5805C14.3989 10.6836 14.6447 10.7867 14.9069 10.9242C17.1029 12.0411 18.627 13.8625 19.4464 16.3713L21.2819 15.3918C20.02 11.8349 17.6929 9.9619 15.7919 8.99963Z" fill="black"/>
<path d="M21.6258 1.439C20.3148 0.768849 19.0529 0.390816 18.0205 0.184616L17.2666 2.21225C20.0853 2.71056 25.5426 4.65228 26.9847 12.316L28.8693 11.3022C27.5911 5.58018 24.2807 2.79648 21.6258 1.439Z" fill="black"/>
<path d="M19.0856 5.54581C18.1187 5.06468 17.1845 4.75538 16.3815 4.56636L15.6277 6.59399C16.3488 6.73146 17.2501 7.00639 18.2006 7.47034C20.8063 8.79346 22.4615 11.1132 23.1334 14.3952L25.018 13.3814C23.9036 8.86219 21.2488 6.62836 19.0856 5.54581Z" fill="black"/>
</svg>
