<svg width="181" height="186" viewBox="0 0 181 186" fill="none" xmlns="http://www.w3.org/2000/svg">
<path d="M177.344 37.229H162.678C163.104 36.6138 163.49 35.9674 163.828 35.2898C165.768 31.3888 166.031 26.7948 164.548 22.6844L160.104 10.3902C158.622 6.2841 155.51 2.98282 151.567 1.33359C147.62 -0.317047 143.15 -0.185506 139.301 1.69569L104.129 18.8881C102.39 17.6095 100.264 16.8542 97.9692 16.8542H82.1545C79.8595 16.8542 77.7322 17.6109 75.9938 18.8895L40.823 1.69427C36.9738 -0.185505 32.5034 -0.317047 28.5566 1.33359C24.6139 2.98282 21.5013 6.2841 20.0199 10.3888L15.5756 22.6859C14.0928 26.7948 14.3553 31.3888 16.297 35.2898C16.6337 35.9674 17.0213 36.6152 17.4473 37.229H2.78008C1.24506 37.229 0 38.5091 0 40.0904V60.6888C0 62.2687 1.24506 63.5502 2.78008 63.5502C4.3151 63.5502 5.56015 62.2687 5.56015 60.6888V42.9504H24.8695C25.1787 43.0621 25.4921 43.1654 25.8095 43.2559L49.1481 49.8684C43.9618 58.0481 39.3869 66.652 35.4704 75.5672H5.56015V72.133C5.56015 70.553 4.3151 69.273 2.78008 69.273C1.24506 69.273 0 70.553 0 72.133V78.4286C0 80.0085 1.24506 81.29 2.78008 81.29H12.6938V182.587C12.6938 184.169 13.9389 185.449 15.4739 185.449H164.65C166.185 185.449 167.43 184.169 167.43 182.587V165.973C167.43 164.393 166.185 163.112 164.65 163.112C163.113 163.112 161.87 164.393 161.87 165.973V179.727H106.74V83.0495C114.614 98.4004 119.945 115.092 122.398 132.338C122.56 133.48 123.373 134.409 124.46 134.695C124.688 134.756 124.919 134.784 125.149 134.784C126.008 134.784 126.835 134.374 127.368 133.645C131.364 128.188 135.08 122.347 138.435 116.248C144.053 120.185 149.507 124.576 154.682 129.328C155.555 130.129 156.822 130.283 157.851 129.712C158.881 129.142 159.454 127.969 159.283 126.778C157.064 111.195 152.926 95.8714 147.061 81.29H161.868V154.528C161.868 156.109 163.113 157.389 164.648 157.389C166.185 157.389 167.429 156.109 167.429 154.528V81.29H177.344C178.879 81.29 180.122 80.0085 180.122 78.4286V40.0904C180.124 38.5091 178.88 37.229 177.344 37.229ZM141.685 6.86402C144.165 5.65327 146.93 5.57123 149.474 6.63488C152.014 7.69712 153.938 9.73815 154.893 12.3845L159.336 24.6774C160.292 27.3252 160.129 30.1682 158.878 32.6816C157.629 35.1937 155.484 36.99 152.84 37.7382L108.588 50.2772V36.5261C118.535 30.2573 143.331 17.328 149.503 26.2941C150.389 27.5826 152.124 27.8895 153.377 26.9758C154.63 26.0621 154.927 24.2757 154.039 22.9871C149.276 16.0663 139.239 15.7297 124.203 21.9885C118.01 24.5656 112.291 27.7113 108.588 29.8938V27.782C108.588 26.2502 108.279 24.7905 107.724 23.4652L141.685 6.86402ZM82.1545 22.5755H97.9692C100.759 22.5755 103.028 24.9122 103.028 27.782V51.4328C103.028 54.3041 100.759 56.6393 97.9692 56.6393H82.1545C79.3648 56.6393 77.0959 54.3041 77.0959 51.4328V27.782C77.0959 24.9108 79.3648 22.5755 82.1545 22.5755ZM77.4821 75.5658C80.1412 71.0184 83.0354 66.611 86.1494 62.3621H93.9715C97.0869 66.611 99.9811 71.0184 102.639 75.5658H77.4821ZM21.2457 32.6816C19.9951 30.1682 19.8316 27.3252 20.7867 24.6788L25.2323 12.3831C26.186 9.73815 28.11 7.69712 30.6496 6.63488C33.1919 5.57123 35.9582 5.65327 38.4373 6.86402L72.4002 23.468C71.845 24.7919 71.5358 26.2502 71.5358 27.7835V30.0579C67.8446 27.8712 61.9972 24.6321 55.6455 21.9885C40.6114 15.7297 30.5726 16.0663 25.8095 22.9871C24.9217 24.2757 25.2186 26.0621 26.4719 26.9758C27.7252 27.8895 29.4595 27.584 30.3458 26.2941C36.5753 17.2431 61.7801 30.502 71.5358 36.7V50.2772L27.2854 37.7396C24.64 36.99 22.4948 35.1937 21.2457 32.6816ZM72.7836 56.5657C74.1674 59.2305 76.5916 61.2404 79.4954 62.0141C66.4937 80.6846 57.5433 102.137 53.345 124.686C50.3918 120.245 47.631 115.59 45.1038 110.782C44.7341 110.078 44.0964 109.566 43.342 109.369C42.5889 109.173 41.7905 109.31 41.1405 109.747C36.5107 112.854 31.9771 116.263 27.5988 119.924C32.1076 95.5644 41.4236 72.0764 54.7825 51.4653L72.7836 56.5657ZM18.254 81.29H33.0627C27.1975 95.8714 23.0597 111.194 20.8389 126.778C20.6699 127.969 21.2415 129.142 22.2708 129.712C23.3015 130.282 24.5672 130.129 25.4398 129.328C30.6152 124.576 36.0695 120.185 41.6888 116.248C45.0433 122.347 48.7578 128.187 52.7555 133.645C53.2887 134.374 54.116 134.785 54.9749 134.785C55.2044 134.785 55.4353 134.756 55.6634 134.695C56.7504 134.409 57.5626 133.48 57.7247 132.338C60.1791 115.092 65.5098 98.399 73.3828 83.0481V179.727H18.254V81.29ZM78.9429 179.727V81.29H101.181V179.727H78.9429ZM138.983 109.747C138.333 109.31 137.533 109.174 136.782 109.371C136.029 109.567 135.39 110.079 135.02 110.782C132.493 115.59 129.732 120.246 126.779 124.686C122.58 102.136 113.63 80.6846 100.627 62.0155C103.531 61.2433 105.956 59.2319 107.34 56.5657L125.345 51.4639C138.702 72.0792 148.017 95.5673 152.526 119.924C148.147 116.263 143.613 112.854 138.983 109.747ZM174.564 75.5672H144.655C140.738 66.652 136.163 58.0481 130.978 49.8684L154.314 43.2559C154.632 43.1654 154.945 43.0621 155.254 42.9504H174.564V75.5672Z" fill="#FFD600"/>
</svg>
