<svg width="84" height="127" viewBox="0 0 84 127" fill="none" xmlns="http://www.w3.org/2000/svg">
<path d="M27.583 101.698L23.708 105.53L23.4528 105.783L23.6104 106.105L29.4833 118.125L29.7891 118.75L30.2842 118.261L31.5496 117.009L31.6858 116.874L31.6971 116.683L32.5943 101.549L74.3929 60.2059C74.3936 60.2052 74.3943 60.2046 74.395 60.2039C74.8921 59.7204 75.5274 58.8177 76.1452 57.7412C76.7702 56.6523 77.3997 55.346 77.8733 54.0311M27.583 101.698L73.0344 49.234C74.5447 48.7005 75.719 48.4795 76.5667 48.4301C76.9896 48.4054 77.3405 48.4229 77.616 48.4703C77.7536 48.494 77.8807 48.5266 77.9923 48.5696C78.0952 48.6093 78.2166 48.6699 78.317 48.7671C78.4215 48.8665 78.4875 48.9893 78.5309 49.0942C78.5776 49.2073 78.6128 49.3359 78.6383 49.4742C78.6895 49.7511 78.7088 50.1026 78.6849 50.5241C78.6369 51.3691 78.4129 52.5365 77.8733 54.0311M27.583 101.698L24.8546 98.999L20.9718 102.839L20.722 103.087L20.4048 102.935L8.23709 97.1262L7.59515 96.8197L8.10089 96.3195L9.36634 95.0678L9.50054 94.9351L9.689 94.9241L24.994 94.0364L27.583 101.698ZM77.8733 54.0311C77.8733 54.0312 77.8732 54.0313 77.8732 54.0315L77.4029 53.8617L77.8733 54.0311ZM71.7292 45.6355L71.7296 45.6354C76.1623 44.0628 79.3107 44.3365 81.0747 46.0813C82.8351 47.8225 83.1134 50.929 81.5085 55.3104C80.4021 58.3235 78.5848 61.4571 77.1162 62.9097L64.8836 75.0091L64.7011 75.1896L64.7414 75.4431L71.1256 115.612L61.4468 125.185L48.4219 92.2706L48.1435 91.5669L47.6054 92.0991L36.5085 103.075L36.3723 103.21L36.3609 103.401L35.4638 118.535L28.6649 125.26L20.8587 109.261L20.5531 108.635L20.0577 109.125L15.7045 113.431L12.9761 110.732L17.3215 106.434L17.8273 105.934L17.1853 105.627L1.01961 97.9102L7.79384 91.2098L23.0989 90.3221L23.2874 90.3111L23.4216 90.1784L34.3401 79.3788L34.8888 78.836L34.1692 78.5571L0.900333 65.6615L10.5717 56.0954L51.2061 62.4113L51.4554 62.4501L51.6347 62.2725L64.0455 49.9807C65.5313 48.5112 68.6847 46.7133 71.7292 45.6355ZM8.36047 63.696L7.81161 64.2389L8.53148 64.5177L37.5718 75.7667L37.8737 75.8836L38.104 75.6559L47.3677 66.4931L48.0727 65.7957L47.0928 65.6435L12.1633 60.2196L11.9142 60.181L11.735 60.3582L8.36047 63.696ZM66.8198 114.474L67.0022 114.293L66.962 114.04L61.4784 79.5065L61.3256 78.5444L60.633 79.2295L51.3693 88.3923L51.1343 88.6247L51.256 88.9319L62.6288 117.64L62.9074 118.343L63.4453 117.811L66.8198 114.474Z" fill="#FF0000" stroke="#FFCACA"/>
<circle cx="62.9206" cy="19.4087" r="16.9123" stroke="#FF0000" stroke-width="3"/>
<path d="M51.5844 30.7451L74.2569 8.07251" stroke="#FF0000" stroke-width="3"/>
</svg>
