<svg width="82" height="83" viewBox="0 0 82 83" fill="none" xmlns="http://www.w3.org/2000/svg">
<path d="M41 0.105713C18.393 0.105713 0 18.4987 0 41.1057C0 63.7128 18.393 82.1057 41 82.1057C63.6088 82.1057 82 63.7128 82 41.1057C82 18.4987 63.6088 0.105713 41 0.105713ZM41 78.5405C20.3574 78.5405 3.56522 61.7483 3.56522 41.1057C3.56522 20.4631 20.3574 3.67093 41 3.67093C61.6408 3.67093 78.4348 20.4631 78.4348 41.1057C78.4348 61.7483 61.6408 78.5405 41 78.5405Z" fill="#FF0000"/>
<path d="M32.0868 33.9753C32.0868 31.0268 29.6874 28.6274 26.7389 28.6274C23.7905 28.6274 21.3911 31.0268 21.3911 33.9753C21.3911 36.9237 23.7905 39.3231 26.7389 39.3231C29.6874 39.3231 32.0868 36.9237 32.0868 33.9753Z" fill="#FF0000"/>
<path d="M55.2609 28.6274C52.3125 28.6274 49.9131 31.0268 49.9131 33.9753C49.9131 36.9237 52.3125 39.3231 55.2609 39.3231C58.2093 39.3231 60.6087 36.9237 60.6087 33.9753C60.6087 31.0268 58.2093 28.6274 55.2609 28.6274Z" fill="#FF0000"/>
<path d="M41 50.0188C34.3545 50.0188 28.0227 52.8335 23.6285 57.7428C22.9725 58.4773 23.0349 59.6039 23.7676 60.2599C24.502 60.9176 25.6286 60.8535 26.2846 60.1208C30.0031 55.9656 35.367 53.584 41 53.584C46.6331 53.584 51.997 55.9656 55.7155 60.1208C56.0667 60.5148 56.5551 60.7144 57.0435 60.7144C57.466 60.7144 57.8938 60.5647 58.2325 60.2599C58.9652 59.6039 59.0276 58.4773 58.3716 57.7428C53.9774 52.8353 47.6474 50.0188 41 50.0188Z" fill="#FF0000"/>
</svg>
