<svg width="83" height="118" viewBox="0 0 83 118" fill="none" xmlns="http://www.w3.org/2000/svg">
<path d="M62.2171 36.2833C63.4736 35.0166 65.127 34.3333 66.8961 34.3333C68.6653 34.3333 70.3186 35.0166 71.5587 36.2833L74.3694 39.0999L75.3945 40.1166C80.3051 45.0499 83.0001 51.6333 83.0001 58.6499C83.0001 65.6666 80.3051 72.2499 75.3945 77.1833L42.5418 110.317C37.6312 115.267 31.1003 118 24.1561 118C17.2119 118 10.681 115.267 5.77044 110.317L1.95111 106.467C-0.628166 103.867 -0.628166 99.6333 1.95111 97.0333L12.4667 86.4333C13.7067 85.1833 15.3766 84.4833 17.1457 84.4833C18.9149 84.4833 20.5682 85.1833 21.8248 86.4333L26.6031 91.2499C27.8266 92.4833 29.4469 93.1499 31.1665 93.1499C32.9025 93.1499 34.5228 92.4666 35.7298 91.2499L56.4798 70.3166C58.993 67.7833 58.993 63.6499 56.4798 61.0999L51.7015 56.2833C50.4615 55.0333 49.7671 53.3499 49.7671 51.5833C49.7671 49.7999 50.4449 48.1166 51.7015 46.8499L62.2171 36.2833ZM21.2296 90.5499L19.477 88.7833C18.8487 88.1499 18.022 87.7999 17.1457 87.7999C16.2694 87.7999 15.4262 88.1499 14.8145 88.7833L4.29893 99.3833C3.67064 100.017 3.32343 100.85 3.32343 101.733C3.32343 102.617 3.67064 103.467 4.29893 104.083L6.05151 105.85L6.6302 106.433L7.20889 105.85L21.2461 91.6999L21.8248 91.1166L21.2296 90.5499ZM38.0776 93.5999C36.2258 95.4666 33.7788 96.4833 31.1665 96.4833C28.7856 96.4833 26.5039 95.6166 24.7182 94.0333L24.1396 93.5166L23.5939 94.0666L9.60629 108.167L8.96148 108.817L9.6559 109.4C13.7398 112.817 18.8818 114.717 24.1726 114.717C30.2075 114.717 35.8951 112.317 40.2105 107.983L73.0633 74.8333C81.3963 66.4166 82.0081 53.1833 74.4686 44.0333L73.89 43.3333L73.2451 43.9833L59.2575 58.0833L58.7119 58.6333L59.2244 59.2166C62.6304 63.0999 62.432 69.0166 58.7945 72.6833L38.0776 93.5999ZM54.0328 53.9333L55.7854 55.6999L56.3641 56.2833L56.9427 55.6999L70.9635 41.5666L71.5587 40.9666L70.9635 40.3833L69.2109 38.6333C68.5826 37.9999 67.7559 37.6666 66.8796 37.6666C65.9868 37.6666 65.1601 38.0166 64.5318 38.6499L54.0163 49.2166C52.7431 50.5166 52.7431 52.6333 54.0328 53.9333Z" fill="#FF0000"/>
<path d="M52.1975 36.9168C52.3794 36.9168 52.5778 36.8668 52.7432 36.7835C53.3549 36.4835 53.6029 35.7335 53.3053 35.1001L46.08 20.4668C45.832 19.9668 45.2699 19.6835 44.7242 19.8001C44.1786 19.9168 43.7653 20.3835 43.7322 20.9501L43.1205 30.4501L31.1169 15.8835C30.687 15.3501 29.8934 15.2835 29.3643 15.7168C28.8352 16.1501 28.7691 16.9501 29.1989 17.4835L43.1866 34.4668C43.5173 34.8668 44.0464 35.0168 44.5258 34.8501C45.0053 34.6835 45.3525 34.2501 45.3856 33.7501L45.8981 25.7501L51.0732 36.2335C51.2882 36.6501 51.7346 36.9168 52.1975 36.9168Z" fill="#FF0000"/>
<path d="M57.042 28.5C57.6703 28.5 58.2159 28.0167 58.282 27.3667L59.5055 14.9334C59.5551 14.4334 59.2906 13.95 58.8607 13.7C58.4143 13.4667 57.8687 13.5167 57.4884 13.8334L52.6605 17.8334L54.3139 2.38337C54.38 1.70003 53.9005 1.08337 53.2061 1.00003C52.5282 0.933367 51.9165 1.4167 51.8338 2.1167L49.8497 20.6167C49.8001 21.1167 50.0482 21.6167 50.4946 21.85C50.941 22.0834 51.4866 22.0334 51.8669 21.7167L56.7278 17.7L55.8019 27.1334C55.7358 27.8167 56.2318 28.4334 56.9097 28.5C56.9593 28.5 57.0089 28.5 57.042 28.5Z" fill="#FF0000"/>
<path d="M39.6978 47.6499C40.0946 47.6499 40.4749 47.4499 40.7229 47.1166C41.004 46.6999 41.0205 46.1499 40.7395 45.7166L37.317 40.3999L46.5098 42.3833C47.1877 42.5333 47.8325 42.0999 47.9813 41.4166C48.1301 40.7333 47.7002 40.0833 47.0223 39.9333L34.903 37.3333C34.407 37.2333 33.911 37.4333 33.6299 37.8499C33.3488 38.2666 33.3323 38.8166 33.6134 39.2333L37.0028 44.4999L21.9405 41.1166C21.2791 40.9666 20.6012 41.3833 20.4524 42.0666C20.3036 42.7333 20.717 43.4166 21.3948 43.5666L39.4168 47.6166C39.516 47.6333 39.6152 47.6499 39.6978 47.6499Z" fill="#FF0000"/>
</svg>
