<svg width="96" height="96" viewBox="0 0 96 96" fill="none" xmlns="http://www.w3.org/2000/svg">
<path d="M27.926 50.43C27.926 51.4843 27.0713 52.339 26.0169 52.339C24.9626 52.339 24.1079 51.4843 24.1079 50.43C24.1079 49.3757 24.9626 48.521 26.0169 48.521C27.0713 48.521 27.926 49.3757 27.926 50.43Z" fill="#FF0000" stroke="#FFCACA" stroke-width="0.5"/>
<path d="M71.1122 63.3868C71.1122 64.4411 70.2575 65.2958 69.2032 65.2958C68.1489 65.2958 67.2942 64.4411 67.2942 63.3868C67.2942 62.3325 68.1489 61.4778 69.2032 61.4778C70.2575 61.4778 71.1122 62.3325 71.1122 63.3868Z" fill="#FF0000" stroke="#FFCACA" stroke-width="0.5"/>
<path d="M86.3049 20.504L86.305 20.5041C91.7447 25.3685 94.8644 32.3417 94.8641 39.6349C94.8641 48.4488 90.4106 56.5394 82.9452 61.2848L82.945 61.2848C82.297 61.6972 81.9052 62.456 81.9052 63.2555V65.5485C81.9052 68.9815 79.1111 71.7758 75.6779 71.7758H73.5189H73.2689V72.0258C73.2689 73.0796 72.4156 73.9348 71.3599 73.9348H70.9474H70.7398L70.7017 74.1389C70.2125 76.7597 69.2833 79.2225 67.9992 81.4641L67.9251 81.5934L68.0037 81.7201C68.5947 82.6732 68.9507 83.783 68.9507 84.9803C68.9507 88.4133 66.1565 91.2076 62.7234 91.2076C61.5283 91.2076 60.4162 90.8516 59.4631 90.2606L59.3364 90.182L59.2071 90.2562C55.7818 92.22 51.8321 93.3668 47.6096 93.3668C46.4023 93.3668 45.2265 93.2433 44.0625 93.0589L43.9185 93.0361L43.8278 93.1501C42.6815 94.5897 40.9421 95.5281 38.9711 95.5281C35.5381 95.5281 32.7438 92.734 32.7438 89.3008C32.7438 88.9524 32.7886 88.6122 32.8482 88.2657L32.8728 88.1223L32.7603 88.03C29.6536 85.483 27.2138 82.1671 25.7335 78.3627L25.6767 78.2167L25.5205 78.2041C22.3178 77.9466 19.787 75.2906 19.787 72.0278C19.787 69.3275 21.525 67.0434 23.9391 66.1833L24.1052 66.1241V65.9478V61.2323V60.9823H23.8552C22.7995 60.9823 21.9462 60.1271 21.9462 59.0732V58.8232H21.6962H19.5372C16.1042 58.8232 13.3099 56.0291 13.3099 52.596V50.3009C13.3099 49.4869 12.9128 48.7429 12.2397 48.3152C3.64468 42.8351 -0.89559 32.7445 0.669881 22.6077C2.34825 11.7709 11.0859 3.02473 21.9157 1.3424L21.9157 1.3424C32.9665 -0.374965 43.8202 5.1193 48.881 15.0187C49.3601 15.9559 48.9879 17.107 48.0487 17.5862L48.0473 17.587C47.1139 18.0707 45.9603 17.6963 45.4786 16.7557C41.169 8.32907 31.9498 3.64297 22.4996 5.11686C13.2937 6.54784 5.86828 13.9798 4.4439 23.1923C3.08794 31.9623 6.85993 40.358 14.2919 45.0949C16.0651 46.2252 17.1278 48.1705 17.1278 50.3013V52.5963C17.1278 53.9238 18.2068 55.0054 19.5368 55.0054H32.4936C33.8236 55.0054 34.9026 53.924 34.9026 52.5963V47.8226C34.9026 46.7687 35.7559 45.9135 36.8117 45.9135C37.8674 45.9135 38.7207 46.7687 38.7207 47.8226V52.5963C38.7207 56.0293 35.9266 58.8236 32.4934 58.8236H30.3344H30.0844V59.0736C30.0844 60.1275 29.2311 60.9826 28.1754 60.9826H27.9254V61.2326V65.9482V66.1244L28.0914 66.1836C30.5037 67.0437 32.2436 69.328 32.2436 72.0282C32.2436 74.1398 31.1798 76.006 29.5611 77.1344L29.3955 77.2498L29.4735 77.4361C30.6304 80.1979 32.393 82.6406 34.6061 84.5956L34.7693 84.7399L34.9345 84.5979C36.0292 83.6571 37.4278 83.0713 38.9711 83.0713C42.362 83.0713 45.117 85.7962 45.1876 89.1721L45.1922 89.3896L45.4082 89.4151C46.1295 89.5004 46.8626 89.5486 47.6096 89.5486C50.9092 89.5486 53.9998 88.6995 56.7298 87.2592L56.9183 87.1597L56.8499 86.9578C56.6359 86.3265 56.4961 85.6696 56.4961 84.9783C56.4961 81.5453 59.2902 78.751 62.7234 78.751C63.4125 78.751 64.0693 78.8908 64.7031 79.1049L64.9048 79.173L65.0042 78.9848C65.8036 77.4718 66.3874 75.8422 66.7696 74.1338L66.8227 73.8966L66.5871 73.8369C65.7502 73.6248 65.1326 72.9091 65.1326 72.0237V71.7737H64.8826H62.7236C59.2906 71.7737 56.4963 68.9796 56.4963 65.5464V63.2514C56.4963 62.4375 56.0993 61.6936 55.4264 61.2659C46.8333 55.7858 42.2908 45.6993 43.8563 35.5667L43.8563 35.5667C45.577 24.4125 54.9997 15.3977 66.2555 14.1407C73.5591 13.3259 80.8723 15.6422 86.3049 20.504ZM57.4788 58.045L57.6132 57.8342L57.4788 58.045C59.252 59.1753 60.3147 61.1206 60.3147 63.2514V65.5466C60.3147 66.8741 61.3937 67.9557 62.7238 67.9557H75.6805C77.0106 67.9557 78.0896 66.8743 78.0896 65.5466V63.2536C78.0896 61.1175 79.1422 59.1794 80.8992 58.0604C87.2518 54.0247 91.0462 47.1353 91.0464 39.6353C91.0464 33.4281 88.3906 27.4918 83.7603 23.3529C79.7029 19.7233 74.6192 17.7942 69.2335 17.7942C68.3885 17.7942 67.5372 17.8423 66.6823 17.936L66.6817 17.936C57.1026 19.0065 49.0947 26.6619 47.6308 36.1489C46.2771 44.9168 50.0491 53.3081 57.4788 58.045ZM23.6078 72.0239C23.6078 73.3538 24.687 74.4329 26.0169 74.4329C27.3469 74.4329 28.4259 73.3514 28.4259 72.0239C28.4259 70.6965 27.3469 69.6149 26.0169 69.6149C24.6869 69.6149 23.6078 70.6963 23.6078 72.0239ZM36.5624 89.2988C36.5624 90.6262 37.6414 91.7078 38.9714 91.7078C40.3014 91.7078 41.3805 90.6262 41.3805 89.2988C41.3805 87.9713 40.3015 86.8897 38.9714 86.8897C37.6414 86.8897 36.5624 87.9713 36.5624 89.2988ZM60.3145 84.9805C60.3145 86.308 61.3936 87.3895 62.7236 87.3895C64.0538 87.3895 65.1326 86.308 65.1326 84.9805C65.1326 83.6531 64.0536 82.5715 62.7236 82.5715C61.3936 82.5715 60.3145 83.6531 60.3145 84.9805Z" fill="#FF0000" stroke="#FFCACA" stroke-width="0.5"/>
<path d="M8.99194 26.6798C8.99194 17.2919 16.629 9.65479 26.017 9.65479C35.4047 9.65479 43.042 17.2941 43.042 26.6798C43.042 36.0656 35.4049 43.7049 26.017 43.7049C16.629 43.7049 8.99194 36.0678 8.99194 26.6798ZM12.8102 26.6798C12.8102 33.9602 18.7344 39.8844 26.017 39.8844C33.2994 39.8844 39.2238 33.9602 39.2238 26.6798C39.2238 19.3994 33.2995 13.4753 26.017 13.4753C18.7344 13.4753 12.8102 19.3994 12.8102 26.6798Z" fill="#FF0000" stroke="#FFCACA" stroke-width="0.5"/>
<path d="M52.1782 39.6366C52.1782 30.2487 59.8153 22.6116 69.2033 22.6116C78.589 22.6116 86.2283 30.2469 86.2283 39.6346C86.2283 49.0224 78.5912 56.6616 69.2033 56.6616C59.8153 56.6616 52.1782 49.0246 52.1782 39.6366ZM55.9965 39.6366C55.9965 46.917 61.9207 52.8412 69.2033 52.8412C76.4858 52.8412 82.41 46.917 82.41 39.6366C82.41 32.3562 76.4858 26.432 69.2033 26.432C61.9207 26.432 55.9965 32.3562 55.9965 39.6366Z" fill="#FF0000" stroke="#FFCACA" stroke-width="0.5"/>
</svg>
