<svg width="93" height="93" viewBox="0 0 93 93" fill="none" xmlns="http://www.w3.org/2000/svg">
<path d="M88.6234 46.8901V46.9958L88.7231 47.0313C91.1213 47.8866 92.8506 50.1562 92.8506 52.8415V65.5231C92.8506 68.2084 91.1213 70.478 88.7231 71.3333L88.6234 71.3688V71.4745V84.5455C88.6234 89.1255 84.8988 92.85 80.319 92.85H8.45643C3.8764 92.85 0.151953 89.1254 0.151953 84.5455V33.8191C0.151953 29.239 3.8766 25.5146 8.45643 25.5146H15.7648H15.8053L15.8403 25.4942L57.4524 1.2684C59.3541 0.161573 61.5751 -0.136452 63.6996 0.43123C65.8343 1.00281 67.618 2.37888 68.7231 4.30533L80.8617 25.5073L80.901 25.5759L80.9799 25.5823C85.2475 25.9257 88.6234 29.4669 88.6234 33.8191V46.8901ZM69.3627 13.6628L69.5145 13.5953L69.432 13.4512L65.3134 6.25735L65.1833 6.33188L65.3134 6.2573C64.7344 5.24681 63.8018 4.52347 62.6831 4.2241L62.6444 4.369L62.6831 4.2241C61.5794 3.92882 60.4215 4.08295 59.4292 4.66253L51.8436 9.07859L51.6941 9.16564L51.8015 9.30131C54.6215 12.8648 58.8241 14.9467 63.4102 14.9467C65.4402 14.9467 67.4658 14.506 69.3627 13.6628ZM48.3678 11.2565L48.2879 11.1487L48.1719 11.2162L24.0909 25.2352L23.6106 25.5148H24.1664H76.0799H76.3387L76.2101 25.2903L71.528 17.1122L71.4592 16.992L71.3339 17.0511C68.826 18.233 66.1289 18.874 63.4102 18.874C57.4006 18.874 51.9255 16.0526 48.3678 11.2565ZM84.5461 46.6507H84.6961V46.5007V33.8191C84.6961 31.406 82.7321 29.4419 80.319 29.4419H8.45643C6.04334 29.4419 4.07929 31.406 4.07929 33.8191V84.5455C4.07929 86.9586 6.04334 88.9227 8.45643 88.9227H80.319C82.7321 88.9227 84.6961 86.9586 84.6961 84.5455V71.8639V71.7139H84.5461H71.8645C64.9542 71.7139 59.3329 66.0926 59.3329 59.1823C59.3329 52.272 64.9542 46.6507 71.8645 46.6507H84.5461ZM86.6598 67.7868C87.9089 67.7868 88.9234 66.772 88.9234 65.5231V52.8415C88.9234 51.5923 87.9087 50.5778 86.6598 50.5778H71.8645C67.1188 50.5778 63.26 54.4368 63.26 59.1823C63.26 63.928 67.119 67.7868 71.8645 67.7868H86.6598Z" fill="#FF0000" stroke="#FFCACA" stroke-width="0.3"/>
<path d="M67.786 59.1825C67.786 56.9351 69.6157 55.1053 71.8631 55.1053C74.1107 55.1053 75.9404 56.9351 75.9403 59.1825C75.9403 61.4299 74.1105 63.2596 71.8631 63.2596C69.6157 63.2596 67.786 61.4299 67.786 59.1825Z" fill="#FF0000" stroke="#FFCACA" stroke-width="0.3"/>
</svg>
